<svg xmlns="http://www.w3.org/2000/svg" viewBox="0 0 1280 640" fill="none">
  <title>vscode-if-end-marker — Inline markers at if-statement closing braces</title>
  <defs>
    <radialGradient id="g" cx="80%" cy="20%" r="80%">
      <stop offset="0%" stop-color="#3b82f6" stop-opacity="0.20"/>
      <stop offset="60%" stop-color="#0a0510" stop-opacity="0"/>
    </radialGradient>
    <pattern id="grid" width="40" height="40" patternUnits="userSpaceOnUse">
      <path d="M 40 0 L 0 0 0 40" fill="none" stroke="#ffffff" stroke-opacity="0.04" stroke-width="1"/>
    </pattern>
  </defs>
  <rect width="1280" height="640" fill="#0a0510"/>
  <rect width="1280" height="640" fill="url(#grid)"/>
  <rect width="1280" height="640" fill="url(#g)"/>

  <!-- Large decorative mark on right (low opacity) -->
  <g transform="translate(820, 120) scale(1.7)" opacity="0.10">
    <rect x="0" y="0" width="256" height="256" rx="56" fill="#3b82f6"/>
    
			<g fill="#ffffff" font-family="ui-monospace, Menlo, Consolas, monospace">
				<text x="68" y="170" font-size="100" font-weight="900">{ }</text>
			</g>
  </g>

  <!-- Small primary mark, top-left -->
  <g transform="translate(96, 96) scale(0.47)">
    <rect x="0" y="0" width="256" height="256" rx="56" fill="#3b82f6"/>
    
			<g fill="#ffffff" font-family="ui-monospace, Menlo, Consolas, monospace">
				<text x="68" y="170" font-size="100" font-weight="900">{ }</text>
			</g>
  </g>

  <!-- Wordmark, tagline, footnote (all outlined paths — no font dependency) -->
  <path fill="#fafafa" d="M138.95 380L120.02 380L101.03 327.59L118.28 327.59L126.11 353.23Q127.19 356.75 128.05 360.36Q128.92 363.97 129.77 367.77L129.77 367.77Q130.52 363.97 131.36 360.38Q132.20 356.80 133.28 353.23L133.28 353.23L140.97 327.59L158.03 327.59L138.95 380ZM181.73 380.98L181.73 380.98Q171.65 380.98 165.16 376.74Q158.67 372.50 157.31 365L157.31 365L172.50 362.61Q173.48 366.03 175.82 367.77Q178.17 369.50 182.34 369.50L182.34 369.50Q185.76 369.50 187.73 368.30Q189.70 367.11 189.70 365.14L189.70 365.14Q189.70 361.72 183.28 360.45L183.28 360.45L174.14 358.67Q158.62 355.72 158.62 343.58L158.62 343.58Q158.62 335.75 164.88 331.34Q171.14 326.94 181.68 326.94L181.68 326.94Q191.53 326.94 197.48 330.83Q203.43 334.72 204.79 341.47L204.79 341.47L190.36 343.77Q188.76 338.19 181.97 338.19L181.97 338.19Q179.01 338.19 176.97 339.38Q174.93 340.58 174.93 342.59L174.93 342.59Q174.93 344.19 176.20 345.38Q177.47 346.58 180.84 347.23L180.84 347.23L190.87 349.11Q206.29 352.02 206.29 363.27L206.29 363.27Q206.29 368.66 203.13 372.64Q199.97 376.63 194.43 378.80Q188.90 380.98 181.73 380.98ZM234.21 380.98L234.21 380.98Q226.01 380.98 220.10 377.59Q214.20 374.19 211.03 368.12Q207.87 362.05 207.87 353.98L207.87 353.98Q207.87 345.92 211.03 339.83Q214.20 333.73 220.10 330.34Q226.01 326.94 234.21 326.94L234.21 326.94Q244.24 326.94 250.69 331.95Q257.13 336.97 258.35 345.55L258.35 345.55L243.26 348.08Q242.46 343.95 240.24 341.70Q238.01 339.45 234.40 339.45L234.40 339.45Q229.71 339.45 227.13 343.27Q224.56 347.09 224.56 353.89L224.56 353.89Q224.56 360.64 227.13 364.55Q229.71 368.47 234.40 368.47L234.40 368.47Q238.01 368.47 240.28 366.13Q242.56 363.78 243.31 359.56L243.31 359.56L258.40 362Q257.18 370.81 250.76 375.90Q244.34 380.98 234.21 380.98ZM286.55 380.98L286.55 380.98Q278.35 380.98 272.44 377.59Q266.54 374.19 263.37 368.12Q260.21 362.05 260.21 353.98L260.21 353.98Q260.21 345.92 263.37 339.83Q266.54 333.73 272.44 330.34Q278.35 326.94 286.55 326.94L286.55 326.94Q294.76 326.94 300.64 330.34Q306.52 333.73 309.69 339.83Q312.85 345.92 312.85 353.98L312.85 353.98Q312.85 362.05 309.69 368.12Q306.52 374.19 300.64 377.59Q294.76 380.98 286.55 380.98ZM286.55 368.47L286.55 368.47Q291.24 368.47 293.72 364.46Q296.21 360.45 296.21 353.89L296.21 353.89Q296.21 347.33 293.72 343.39Q291.24 339.45 286.55 339.45L286.55 339.45Q281.87 339.45 279.38 343.39Q276.90 347.33 276.90 353.89L276.90 353.89Q276.90 360.45 279.38 364.46Q281.87 368.47 286.55 368.47ZM335.85 380.75L335.85 380.75Q330.03 380.75 325.25 377.73Q320.47 374.70 317.66 368.73Q314.85 362.75 314.85 353.84L314.85 353.84Q314.85 344.66 317.78 338.70Q320.71 332.75 325.46 329.84Q330.22 326.94 335.71 326.94L335.71 326.94Q339.88 326.94 342.83 328.37Q345.78 329.80 347.68 332.02Q349.58 334.25 350.57 336.59L350.57 336.59L350.94 336.59L350.94 310.16L367.25 310.16L367.25 380L351.13 380L351.13 371.52L350.57 371.52Q349.02 375.08 345.43 377.91Q341.85 380.75 335.85 380.75ZM341.42 368L341.42 368Q346.07 368 348.69 364.13Q351.32 360.27 351.32 353.84L351.32 353.84Q351.32 347.33 348.71 343.53Q346.11 339.73 341.42 339.73L341.42 339.73Q336.69 339.73 334.18 343.60Q331.67 347.47 331.67 353.84L331.67 353.84Q331.67 360.22 334.18 364.11Q336.69 368 341.42 368ZM397.70 380.98L397.70 380.98Q385.37 380.98 378.32 373.79Q371.27 366.59 371.27 353.98L371.27 353.98Q371.27 345.92 374.43 339.83Q377.59 333.73 383.41 330.34Q389.22 326.94 397.09 326.94L397.09 326.94Q404.45 326.94 410.15 330.01Q415.84 333.08 419.10 339.05Q422.36 345.03 422.36 353.66L422.36 353.66L422.36 357.78L387.34 357.78Q387.58 363.45 390.46 366.29Q393.34 369.13 397.98 369.13L397.98 369.13Q401.27 369.13 403.66 367.74Q406.05 366.36 407.03 363.73L407.03 363.73L421.61 366.13Q419.64 372.92 413.43 376.95Q407.22 380.98 397.70 380.98ZM387.44 348.27L387.44 348.27L406.84 348.27Q406.37 343.81 403.94 341.30Q401.50 338.80 397.23 338.80L397.23 338.80Q392.92 338.80 390.41 341.35Q387.91 343.91 387.44 348.27ZM427.26 345.41L459.47 345.41L459.47 358.02L427.26 358.02L427.26 345.41ZM482.93 380L466.57 380L466.57 327.59L482.93 327.59L482.93 380ZM474.73 321.45L474.73 321.45Q471.26 321.45 468.77 319.16Q466.29 316.86 466.29 313.58L466.29 313.58Q466.29 310.30 468.77 308Q471.26 305.70 474.73 305.70L474.73 305.70Q478.24 305.70 480.73 308Q483.21 310.30 483.21 313.58L483.21 313.58Q483.21 316.86 480.73 319.16Q478.24 321.45 474.73 321.45ZM509.58 327.59L520.08 327.59L520.08 339.73L509.58 339.73L509.58 380L493.32 380L493.32 339.73L484.51 339.73L484.51 327.59L493.32 327.59L493.32 324.78Q493.32 315.78 498.29 311.33Q503.26 306.88 511.13 306.88L511.13 306.88Q514.60 306.88 517.65 307.41Q520.69 307.95 522.15 308.38L522.15 308.38L519.52 320.33Q518.58 320.09 517.32 319.88Q516.05 319.67 514.79 319.67L514.79 319.67Q511.88 319.67 510.73 321.01Q509.58 322.34 509.58 324.64L509.58 324.64L509.58 327.59ZM524.61 345.41L556.82 345.41L556.82 358.02L524.61 358.02L524.61 345.41ZM588.34 380.98L588.34 380.98Q576.02 380.98 568.96 373.79Q561.91 366.59 561.91 353.98L561.91 353.98Q561.91 345.92 565.07 339.83Q568.23 333.73 574.05 330.34Q579.86 326.94 587.73 326.94L587.73 326.94Q595.09 326.94 600.79 330.01Q606.48 333.08 609.74 339.05Q613 345.03 613 353.66L613 353.66L613 357.78L577.98 357.78Q578.22 363.45 581.10 366.29Q583.98 369.13 588.63 369.13L588.63 369.13Q591.91 369.13 594.30 367.74Q596.69 366.36 597.67 363.73L597.67 363.73L612.25 366.13Q610.28 372.92 604.07 376.95Q597.86 380.98 588.34 380.98ZM578.08 348.27L578.08 348.27L597.48 348.27Q597.02 343.81 594.58 341.30Q592.14 338.80 587.88 338.80L587.88 338.80Q583.56 338.80 581.05 341.35Q578.55 343.91 578.08 348.27ZM633.14 350.09L633.14 350.09L633.14 380L616.78 380L616.78 327.59L632.15 327.59L632.43 338.89Q634.50 333.45 638.48 330.20Q642.47 326.94 648.84 326.94L648.84 326.94Q657.04 326.94 662.01 332.33Q666.98 337.72 666.98 346.63L666.98 346.63L666.98 380L650.62 380L650.62 349.81Q650.62 345.41 648.37 342.90Q646.12 340.39 642.09 340.39L642.09 340.39Q638.11 340.39 635.62 342.95Q633.14 345.50 633.14 350.09ZM691.95 380.75L691.95 380.75Q686.13 380.75 681.35 377.73Q676.57 374.70 673.76 368.73Q670.95 362.75 670.95 353.84L670.95 353.84Q670.95 344.66 673.88 338.70Q676.81 332.75 681.56 329.84Q686.32 326.94 691.81 326.94L691.81 326.94Q695.98 326.94 698.93 328.37Q701.88 329.80 703.78 332.02Q705.68 334.25 706.67 336.59L706.67 336.59L707.04 336.59L707.04 310.16L723.35 310.16L723.35 380L707.23 380L707.23 371.52L706.67 371.52Q705.12 375.08 701.53 377.91Q697.95 380.75 691.95 380.75ZM697.53 368L697.53 368Q702.17 368 704.79 364.13Q707.42 360.27 707.42 353.84L707.42 353.84Q707.42 347.33 704.81 343.53Q702.21 339.73 697.53 339.73L697.53 339.73Q692.79 339.73 690.28 343.60Q687.78 347.47 687.78 353.84L687.78 353.84Q687.78 360.22 690.28 364.11Q692.79 368 697.53 368ZM730.51 345.41L762.71 345.41L762.71 358.02L730.51 358.02L730.51 345.41ZM786.18 380L769.82 380L769.82 327.59L784.86 327.59L785.61 338Q787.77 332.09 791.87 329.49Q795.97 326.89 800.71 326.89L800.71 326.89Q805.68 326.89 808.98 329.75Q812.28 332.61 814.21 339.03L814.21 339.03Q816.60 332.56 821.26 329.73Q825.93 326.89 831.22 326.89L831.22 326.89Q838.58 326.89 843.29 331.63Q848.00 336.36 848.00 344.66L848.00 344.66L848.00 380L831.64 380L831.64 348.36Q831.64 344.38 829.58 342.31Q827.52 340.25 824.28 340.25L824.28 340.25Q820.82 340.25 818.80 342.52Q816.78 344.80 816.78 348.55L816.78 348.55L816.78 380L801.08 380L801.08 348.13Q801.08 344.52 799.04 342.38Q797.00 340.25 793.77 340.25L793.77 340.25Q790.44 340.25 788.31 342.50Q786.18 344.75 786.18 348.88L786.18 348.88L786.18 380ZM868.70 380.94L868.70 380.94Q861.16 380.94 856.30 377.09Q851.45 373.25 851.45 365.47L851.45 365.47Q851.45 359.66 854.13 356.23Q856.80 352.81 861.23 351.17Q865.66 349.53 870.95 349.06L870.95 349.06Q877.61 348.50 880.49 347.68Q883.38 346.86 883.38 344.42L883.38 344.42L883.38 344.23Q883.38 341.52 881.48 340.04Q879.58 338.56 876.25 338.56L876.25 338.56Q872.83 338.56 870.63 340.02Q868.42 341.47 867.77 343.95L867.77 343.95L852.95 342.03Q854.50 335.33 860.52 331.13Q866.55 326.94 876.39 326.94L876.39 326.94Q882.91 326.94 888.18 328.95Q893.45 330.97 896.57 334.88Q899.69 338.80 899.69 344.42L899.69 344.42L899.69 380L884.31 380L884.31 372.64L883.89 372.64Q879.53 380.94 868.70 380.94ZM873.67 370.11L873.67 370.11Q877.80 370.11 880.66 367.67Q883.52 365.23 883.52 361.34L883.52 361.34L883.52 356.33Q882.11 357.08 879.44 357.59Q876.77 358.11 874.47 358.48L874.47 358.48Q866.92 359.61 866.92 364.72L866.92 364.72Q866.92 367.34 868.82 368.73Q870.72 370.11 873.67 370.11ZM922.08 380L905.72 380L905.72 327.59L921.61 327.59L921.61 337.16L922.17 337.16Q923.58 332 926.83 329.47Q930.09 326.94 934.40 326.94L934.40 326.94Q936.79 326.94 939.04 327.50L939.04 327.50L939.04 341.75Q937.87 341.33 935.97 341.12Q934.08 340.91 932.58 340.91L932.58 340.91Q928.03 340.91 925.05 343.81Q922.08 346.72 922.08 351.41L922.08 351.41L922.08 380ZM957.59 380L941.23 380L941.23 310.16L957.59 310.16L957.59 346.53L958.34 346.53L973.34 327.59L991.95 327.59L973.24 350.47L992.70 380L973.81 380L961.06 359.98L957.59 364.11L957.59 380ZM1017.76 380.98L1017.76 380.98Q1005.43 380.98 998.37 373.79Q991.32 366.59 991.32 353.98L991.32 353.98Q991.32 345.92 994.48 339.83Q997.65 333.73 1003.46 330.34Q1009.27 326.94 1017.15 326.94L1017.15 326.94Q1024.51 326.94 1030.20 330.01Q1035.90 333.08 1039.15 339.05Q1042.41 345.03 1042.41 353.66L1042.41 353.66L1042.41 357.78L1007.40 357.78Q1007.63 363.45 1010.51 366.29Q1013.40 369.13 1018.04 369.13L1018.04 369.13Q1021.32 369.13 1023.71 367.74Q1026.10 366.36 1027.08 363.73L1027.08 363.73L1041.66 366.13Q1039.69 372.92 1033.48 376.95Q1027.27 380.98 1017.76 380.98ZM1007.49 348.27L1007.49 348.27L1026.90 348.27Q1026.43 343.81 1023.99 341.30Q1021.55 338.80 1017.29 338.80L1017.29 338.80Q1012.98 338.80 1010.47 341.35Q1007.96 343.91 1007.49 348.27ZM1062.55 380L1046.19 380L1046.19 327.59L1062.08 327.59L1062.08 337.16L1062.64 337.16Q1064.05 332 1067.31 329.47Q1070.57 326.94 1074.88 326.94L1074.88 326.94Q1077.27 326.94 1079.52 327.50L1079.52 327.50L1079.52 341.75Q1078.35 341.33 1076.45 341.12Q1074.55 340.91 1073.05 340.91L1073.05 340.91Q1068.50 340.91 1065.53 343.81Q1062.55 346.72 1062.55 351.41L1062.55 351.41L1062.55 380Z"/>
  <path fill="#60a5fa" d="M101.81 416.72L107.33 416.72L107.33 440L101.81 440L101.81 416.72ZM116.07 430.03L116.07 430.03L116.07 440L110.62 440L110.62 422.53L115.74 422.53L115.84 426.30Q116.52 424.48 117.85 423.40Q119.18 422.31 121.31 422.31L121.31 422.31Q124.04 422.31 125.70 424.11Q127.35 425.91 127.35 428.88L127.35 428.88L127.35 440L121.90 440L121.90 429.94Q121.90 428.47 121.15 427.63Q120.40 426.80 119.06 426.80L119.06 426.80Q117.73 426.80 116.90 427.65Q116.07 428.50 116.07 430.03ZM130.63 416.72L136.08 416.72L136.08 440L130.63 440L130.63 416.72ZM144.82 440L139.37 440L139.37 422.53L144.82 422.53L144.82 440ZM142.09 420.48L142.09 420.48Q140.93 420.48 140.10 419.72Q139.27 418.95 139.27 417.86L139.27 417.86Q139.27 416.77 140.10 416Q140.93 415.23 142.09 415.23L142.09 415.23Q143.26 415.23 144.09 416Q144.92 416.77 144.92 417.86L144.92 417.86Q144.92 418.95 144.09 419.72Q143.26 420.48 142.09 420.48ZM153.56 430.03L153.56 430.03L153.56 440L148.11 440L148.11 422.53L153.24 422.53L153.33 426.30Q154.02 424.48 155.35 423.40Q156.67 422.31 158.80 422.31L158.80 422.31Q161.53 422.31 163.19 424.11Q164.85 425.91 164.85 428.88L164.85 428.88L164.85 440L159.39 440L159.39 429.94Q159.39 428.47 158.64 427.63Q157.89 426.80 156.55 426.80L156.55 426.80Q155.22 426.80 154.39 427.65Q153.56 428.50 153.56 430.03ZM176.26 440.33L176.26 440.33Q172.15 440.33 169.80 437.93Q167.45 435.53 167.45 431.33L167.45 431.33Q167.45 428.64 168.50 426.61Q169.56 424.58 171.49 423.45Q173.43 422.31 176.06 422.31L176.06 422.31Q178.51 422.31 180.41 423.34Q182.31 424.36 183.39 426.35Q184.48 428.34 184.48 431.22L184.48 431.22L184.48 432.59L172.81 432.59Q172.88 434.48 173.85 435.43Q174.81 436.38 176.35 436.38L176.35 436.38Q177.45 436.38 178.24 435.91Q179.04 435.45 179.37 434.58L179.37 434.58L184.23 435.38Q183.57 437.64 181.50 438.98Q179.43 440.33 176.26 440.33ZM172.84 429.42L172.84 429.42L179.31 429.42Q179.15 427.94 178.34 427.10Q177.53 426.27 176.10 426.27L176.10 426.27Q174.67 426.27 173.83 427.12Q172.99 427.97 172.84 429.42ZM199.15 440L193.70 440L193.70 422.53L198.71 422.53L198.96 426Q199.68 424.03 201.05 423.16Q202.42 422.30 203.99 422.30L203.99 422.30Q205.65 422.30 206.75 423.25Q207.85 424.20 208.49 426.34L208.49 426.34Q209.29 424.19 210.85 423.24Q212.40 422.30 214.17 422.30L214.17 422.30Q216.62 422.30 218.19 423.88Q219.76 425.45 219.76 428.22L219.76 428.22L219.76 440L214.31 440L214.31 429.45Q214.31 428.13 213.62 427.44Q212.93 426.75 211.85 426.75L211.85 426.75Q210.70 426.75 210.03 427.51Q209.35 428.27 209.35 429.52L209.35 429.52L209.35 440L204.12 440L204.12 429.38Q204.12 428.17 203.44 427.46Q202.76 426.75 201.68 426.75L201.68 426.75Q200.57 426.75 199.86 427.50Q199.15 428.25 199.15 429.63L199.15 429.63L199.15 440ZM227.94 440.31L227.94 440.31Q225.42 440.31 223.81 439.03Q222.19 437.75 222.19 435.16L222.19 435.16Q222.19 433.22 223.08 432.08Q223.97 430.94 225.45 430.39Q226.92 429.84 228.69 429.69L228.69 429.69Q230.91 429.50 231.87 429.23Q232.83 428.95 232.83 428.14L232.83 428.14L232.83 428.08Q232.83 427.17 232.20 426.68Q231.57 426.19 230.46 426.19L230.46 426.19Q229.32 426.19 228.58 426.67Q227.85 427.16 227.63 427.98L227.63 427.98L222.69 427.34Q223.21 425.11 225.21 423.71Q227.22 422.31 230.50 422.31L230.50 422.31Q232.67 422.31 234.43 422.98Q236.19 423.66 237.23 424.96Q238.27 426.27 238.27 428.14L238.27 428.14L238.27 440L233.14 440L233.14 437.55L233.00 437.55Q231.55 440.31 227.94 440.31ZM229.60 436.70L229.60 436.70Q230.97 436.70 231.92 435.89Q232.88 435.08 232.88 433.78L232.88 433.78L232.88 432.11Q232.41 432.36 231.52 432.53Q230.63 432.70 229.86 432.83L229.86 432.83Q227.35 433.20 227.35 434.91L227.35 434.91Q227.35 435.78 227.98 436.24Q228.61 436.70 229.60 436.70ZM247.01 440L241.56 440L241.56 422.53L246.85 422.53L246.85 425.72L247.04 425.72Q247.51 424 248.60 423.16Q249.68 422.31 251.12 422.31L251.12 422.31Q251.92 422.31 252.67 422.50L252.67 422.50L252.67 427.25Q252.28 427.11 251.64 427.04Q251.01 426.97 250.51 426.97L250.51 426.97Q249.00 426.97 248.00 427.94Q247.01 428.91 247.01 430.47L247.01 430.47L247.01 440ZM260.13 440L254.68 440L254.68 416.72L260.13 416.72L260.13 428.84L260.38 428.84L265.38 422.53L271.58 422.53L265.35 430.16L271.83 440L265.53 440L261.28 433.33L260.13 434.70L260.13 440ZM281.46 440.33L281.46 440.33Q277.36 440.33 275.00 437.93Q272.65 435.53 272.65 431.33L272.65 431.33Q272.65 428.64 273.71 426.61Q274.76 424.58 276.70 423.45Q278.64 422.31 281.26 422.31L281.26 422.31Q283.71 422.31 285.61 423.34Q287.51 424.36 288.60 426.35Q289.68 428.34 289.68 431.22L289.68 431.22L289.68 432.59L278.01 432.59Q278.09 434.48 279.05 435.43Q280.01 436.38 281.56 436.38L281.56 436.38Q282.65 436.38 283.45 435.91Q284.25 435.45 284.57 434.58L284.57 434.58L289.43 435.38Q288.78 437.64 286.71 438.98Q284.64 440.33 281.46 440.33ZM278.04 429.42L278.04 429.42L284.51 429.42Q284.36 427.94 283.54 427.10Q282.73 426.27 281.31 426.27L281.31 426.27Q279.87 426.27 279.03 427.12Q278.20 427.97 278.04 429.42ZM297.68 440L292.22 440L292.22 422.53L297.52 422.53L297.52 425.72L297.71 425.72Q298.18 424 299.26 423.16Q300.35 422.31 301.79 422.31L301.79 422.31Q302.58 422.31 303.33 422.50L303.33 422.50L303.33 427.25Q302.94 427.11 302.31 427.04Q301.68 426.97 301.18 426.97L301.18 426.97Q299.66 426.97 298.67 427.94Q297.68 428.91 297.68 430.47L297.68 430.47L297.68 440ZM312.70 440.33L312.70 440.33Q309.34 440.33 307.18 438.91Q305.01 437.50 304.56 435L304.56 435L309.62 434.20Q309.95 435.34 310.73 435.92Q311.51 436.50 312.90 436.50L312.90 436.50Q314.04 436.50 314.70 436.10Q315.36 435.70 315.36 435.05L315.36 435.05Q315.36 433.91 313.22 433.48L313.22 433.48L310.17 432.89Q305.00 431.91 305.00 427.86L305.00 427.86Q305.00 425.25 307.08 423.78Q309.17 422.31 312.68 422.31L312.68 422.31Q315.97 422.31 317.95 423.61Q319.93 424.91 320.39 427.16L320.39 427.16L315.57 427.92Q315.04 426.06 312.78 426.06L312.78 426.06Q311.79 426.06 311.11 426.46Q310.43 426.86 310.43 427.53L310.43 427.53Q310.43 428.06 310.86 428.46Q311.28 428.86 312.40 429.08L312.40 429.08L315.75 429.70Q320.89 430.67 320.89 434.42L320.89 434.42Q320.89 436.22 319.83 437.55Q318.78 438.88 316.93 439.60Q315.09 440.33 312.70 440.33ZM334.93 440.31L334.93 440.31Q332.42 440.31 330.80 439.03Q329.18 437.75 329.18 435.16L329.18 435.16Q329.18 433.22 330.08 432.08Q330.97 430.94 332.44 430.39Q333.92 429.84 335.68 429.69L335.68 429.69Q337.90 429.50 338.86 429.23Q339.83 428.95 339.83 428.14L339.83 428.14L339.83 428.08Q339.83 427.17 339.19 426.68Q338.56 426.19 337.45 426.19L337.45 426.19Q336.31 426.19 335.58 426.67Q334.84 427.16 334.62 427.98L334.62 427.98L329.68 427.34Q330.20 425.11 332.21 423.71Q334.22 422.31 337.50 422.31L337.50 422.31Q339.67 422.31 341.43 422.98Q343.18 423.66 344.22 424.96Q345.26 426.27 345.26 428.14L345.26 428.14L345.26 440L340.14 440L340.14 437.55L340.00 437.55Q338.54 440.31 334.93 440.31ZM336.59 436.70L336.59 436.70Q337.97 436.70 338.92 435.89Q339.87 435.08 339.87 433.78L339.87 433.78L339.87 432.11Q339.40 432.36 338.51 432.53Q337.62 432.70 336.86 432.83L336.86 432.83Q334.34 433.20 334.34 434.91L334.34 434.91Q334.34 435.78 334.97 436.24Q335.61 436.70 336.59 436.70ZM354.83 422.53L357.97 422.53L357.97 426.58L354.83 426.58L354.83 434.66Q354.83 436.02 356.22 436.02L356.22 436.02Q356.51 436.02 357.01 435.95Q357.52 435.88 357.74 435.83L357.74 435.83L358.44 439.80Q357.52 440.06 356.66 440.16Q355.80 440.25 355.04 440.25L355.04 440.25Q352.26 440.25 350.82 438.95Q349.38 437.64 349.38 435.14L349.38 435.14L349.38 426.58L347.07 426.58L347.07 422.53L349.38 422.53L349.38 418.38L354.83 418.38L354.83 422.53ZM372.58 440L367.13 440L367.13 422.53L372.58 422.53L372.58 440ZM369.85 420.48L369.85 420.48Q368.69 420.48 367.87 419.72Q367.04 418.95 367.04 417.86L367.04 417.86Q367.04 416.77 367.87 416Q368.69 415.23 369.85 415.23L369.85 415.23Q371.02 415.23 371.85 416Q372.68 416.77 372.68 417.86L372.68 417.86Q372.68 418.95 371.85 419.72Q371.02 420.48 369.85 420.48ZM382.75 422.53L386.25 422.53L386.25 426.58L382.75 426.58L382.75 440L377.33 440L377.33 426.58L374.39 426.58L374.39 422.53L377.33 422.53L377.33 421.59Q377.33 418.59 378.98 417.11Q380.64 415.63 383.26 415.63L383.26 415.63Q384.42 415.63 385.44 415.80Q386.45 415.98 386.94 416.13L386.94 416.13L386.06 420.11Q385.75 420.03 385.33 419.96Q384.90 419.89 384.48 419.89L384.48 419.89Q383.51 419.89 383.13 420.34Q382.75 420.78 382.75 421.55L382.75 421.55L382.75 422.53ZM389.04 428.47L399.77 428.47L399.77 432.67L389.04 432.67L389.04 428.47ZM410.78 440.33L410.78 440.33Q407.42 440.33 405.26 438.91Q403.09 437.50 402.64 435L402.64 435L407.70 434.20Q408.03 435.34 408.81 435.92Q409.59 436.50 410.98 436.50L410.98 436.50Q412.12 436.50 412.78 436.10Q413.44 435.70 413.44 435.05L413.44 435.05Q413.44 433.91 411.30 433.48L411.30 433.48L408.25 432.89Q403.08 431.91 403.08 427.86L403.08 427.86Q403.08 425.25 405.16 423.78Q407.25 422.31 410.76 422.31L410.76 422.31Q414.05 422.31 416.03 423.61Q418.01 424.91 418.47 427.16L418.47 427.16L413.66 427.92Q413.12 426.06 410.86 426.06L410.86 426.06Q409.87 426.06 409.19 426.46Q408.51 426.86 408.51 427.53L408.51 427.53Q408.51 428.06 408.94 428.46Q409.36 428.86 410.48 429.08L410.48 429.08L413.83 429.70Q418.97 430.67 418.97 434.42L418.97 434.42Q418.97 436.22 417.91 437.55Q416.86 438.88 415.01 439.60Q413.17 440.33 410.78 440.33ZM427.73 422.53L430.87 422.53L430.87 426.58L427.73 426.58L427.73 434.66Q427.73 436.02 429.12 436.02L429.12 436.02Q429.40 436.02 429.91 435.95Q430.41 435.88 430.63 435.83L430.63 435.83L431.34 439.80Q430.41 440.06 429.55 440.16Q428.69 440.25 427.93 440.25L427.93 440.25Q425.15 440.25 423.71 438.95Q422.27 437.64 422.27 435.14L422.27 435.14L422.27 426.58L419.96 426.58L419.96 422.53L422.27 422.53L422.27 418.38L427.73 418.38L427.73 422.53ZM438.23 440.31L438.23 440.31Q435.72 440.31 434.10 439.03Q432.48 437.75 432.48 435.16L432.48 435.16Q432.48 433.22 433.37 432.08Q434.27 430.94 435.74 430.39Q437.22 429.84 438.98 429.69L438.98 429.69Q441.20 429.50 442.16 429.23Q443.12 428.95 443.12 428.14L443.12 428.14L443.12 428.08Q443.12 427.17 442.49 426.68Q441.86 426.19 440.75 426.19L440.75 426.19Q439.61 426.19 438.87 426.67Q438.14 427.16 437.92 427.98L437.92 427.98L432.98 427.34Q433.50 425.11 435.51 423.71Q437.52 422.31 440.80 422.31L440.80 422.31Q442.97 422.31 444.73 422.98Q446.48 423.66 447.52 424.96Q448.56 426.27 448.56 428.14L448.56 428.14L448.56 440L443.44 440L443.44 437.55L443.30 437.55Q441.84 440.31 438.23 440.31ZM439.89 436.70L439.89 436.70Q441.27 436.70 442.22 435.89Q443.17 435.08 443.17 433.78L443.17 433.78L443.17 432.11Q442.70 432.36 441.81 432.53Q440.92 432.70 440.16 432.83L440.16 432.83Q437.64 433.20 437.64 434.91L437.64 434.91Q437.64 435.78 438.27 436.24Q438.91 436.70 439.89 436.70ZM458.13 422.53L461.27 422.53L461.27 426.58L458.13 426.58L458.13 434.66Q458.13 436.02 459.52 436.02L459.52 436.02Q459.80 436.02 460.31 435.95Q460.82 435.88 461.04 435.83L461.04 435.83L461.74 439.80Q460.82 440.06 459.96 440.16Q459.10 440.25 458.34 440.25L458.34 440.25Q455.55 440.25 454.12 438.95Q452.68 437.64 452.68 435.14L452.68 435.14L452.68 426.58L450.37 426.58L450.37 422.53L452.68 422.53L452.68 418.38L458.13 418.38L458.13 422.53ZM471.89 440.33L471.89 440.33Q467.78 440.33 465.43 437.93Q463.08 435.53 463.08 431.33L463.08 431.33Q463.08 428.64 464.13 426.61Q465.19 424.58 467.13 423.45Q469.06 422.31 471.69 422.31L471.69 422.31Q474.14 422.31 476.04 423.34Q477.94 424.36 479.02 426.35Q480.11 428.34 480.11 431.22L480.11 431.22L480.11 432.59L468.44 432.59Q468.52 434.48 469.48 435.43Q470.44 436.38 471.98 436.38L471.98 436.38Q473.08 436.38 473.88 435.91Q474.67 435.45 475.00 434.58L475.00 434.58L479.86 435.38Q479.20 437.64 477.13 438.98Q475.06 440.33 471.89 440.33ZM468.47 429.42L468.47 429.42L474.94 429.42Q474.78 427.94 473.97 427.10Q473.16 426.27 471.73 426.27L471.73 426.27Q470.30 426.27 469.46 427.12Q468.63 427.97 468.47 429.42ZM488.10 440L482.65 440L482.65 422.53L487.66 422.53L487.91 426Q488.63 424.03 490.00 423.16Q491.37 422.30 492.95 422.30L492.95 422.30Q494.60 422.30 495.70 423.25Q496.81 424.20 497.45 426.34L497.45 426.34Q498.24 424.19 499.80 423.24Q501.35 422.30 503.12 422.30L503.12 422.30Q505.57 422.30 507.14 423.88Q508.71 425.45 508.71 428.22L508.71 428.22L508.71 440L503.26 440L503.26 429.45Q503.26 428.13 502.57 427.44Q501.88 426.75 500.81 426.75L500.81 426.75Q499.65 426.75 498.98 427.51Q498.31 428.27 498.31 429.52L498.31 429.52L498.31 440L493.07 440L493.07 429.38Q493.07 428.17 492.39 427.46Q491.71 426.75 490.63 426.75L490.63 426.75Q489.52 426.75 488.81 427.50Q488.10 428.25 488.10 429.63L488.10 429.63L488.10 440ZM520.14 440.33L520.14 440.33Q516.03 440.33 513.68 437.93Q511.33 435.53 511.33 431.33L511.33 431.33Q511.33 428.64 512.38 426.61Q513.44 424.58 515.38 423.45Q517.31 422.31 519.94 422.31L519.94 422.31Q522.39 422.31 524.29 423.34Q526.19 424.36 527.27 426.35Q528.36 428.34 528.36 431.22L528.36 431.22L528.36 432.59L516.69 432.59Q516.77 434.48 517.73 435.43Q518.69 436.38 520.24 436.38L520.24 436.38Q521.33 436.38 522.13 435.91Q522.92 435.45 523.25 434.58L523.25 434.58L528.11 435.38Q527.45 437.64 525.38 438.98Q523.31 440.33 520.14 440.33ZM516.72 429.42L516.72 429.42L523.19 429.42Q523.03 427.94 522.22 427.10Q521.41 426.27 519.99 426.27L519.99 426.27Q518.55 426.27 517.71 427.12Q516.88 427.97 516.72 429.42ZM536.35 430.03L536.35 430.03L536.35 440L530.90 440L530.90 422.53L536.02 422.53L536.12 426.30Q536.81 424.48 538.13 423.40Q539.46 422.31 541.59 422.31L541.59 422.31Q544.32 422.31 545.98 424.11Q547.63 425.91 547.63 428.88L547.63 428.88L547.63 440L542.18 440L542.18 429.94Q542.18 428.47 541.43 427.63Q540.68 426.80 539.34 426.80L539.34 426.80Q538.01 426.80 537.18 427.65Q536.35 428.50 536.35 430.03ZM557.19 422.53L560.33 422.53L560.33 426.58L557.19 426.58L557.19 434.66Q557.19 436.02 558.58 436.02L558.58 436.02Q558.86 436.02 559.37 435.95Q559.88 435.88 560.10 435.83L560.10 435.83L560.80 439.80Q559.88 440.06 559.02 440.16Q558.16 440.25 557.39 440.25L557.39 440.25Q554.61 440.25 553.17 438.95Q551.74 437.64 551.74 435.14L551.74 435.14L551.74 426.58L549.42 426.58L549.42 422.53L551.74 422.53L551.74 418.38L557.19 418.38L557.19 422.53ZM577.60 440.33L577.60 440.33Q574.86 440.33 572.89 439.20Q570.92 438.06 569.87 436.04Q568.81 434.02 568.81 431.33L568.81 431.33Q568.81 428.64 569.87 426.61Q570.92 424.58 572.89 423.45Q574.86 422.31 577.60 422.31L577.60 422.31Q580.94 422.31 583.09 423.98Q585.24 425.66 585.64 428.52L585.64 428.52L580.61 429.36Q580.35 427.98 579.60 427.23Q578.86 426.48 577.66 426.48L577.66 426.48Q576.10 426.48 575.24 427.76Q574.38 429.03 574.38 431.30L574.38 431.30Q574.38 433.55 575.24 434.85Q576.10 436.16 577.66 436.16L577.66 436.16Q578.86 436.16 579.62 435.38Q580.38 434.59 580.63 433.19L580.63 433.19L585.66 434Q585.25 436.94 583.11 438.63Q580.97 440.33 577.60 440.33ZM588.21 416.72L593.67 416.72L593.67 440L588.21 440L588.21 416.72ZM605.06 440.33L605.06 440.33Q602.33 440.33 600.36 439.20Q598.39 438.06 597.34 436.04Q596.28 434.02 596.28 431.33L596.28 431.33Q596.28 428.64 597.34 426.61Q598.39 424.58 600.36 423.45Q602.33 422.31 605.06 422.31L605.06 422.31Q607.80 422.31 609.76 423.45Q611.72 424.58 612.78 426.61Q613.83 428.64 613.83 431.33L613.83 431.33Q613.83 434.02 612.78 436.04Q611.72 438.06 609.76 439.20Q607.80 440.33 605.06 440.33ZM605.06 436.16L605.06 436.16Q606.63 436.16 607.46 434.82Q608.28 433.48 608.28 431.30L608.28 431.30Q608.28 429.11 607.46 427.80Q606.63 426.48 605.06 426.48L605.06 426.48Q603.50 426.48 602.67 427.80Q601.85 429.11 601.85 431.30L601.85 431.30Q601.85 433.48 602.67 434.82Q603.50 436.16 605.06 436.16ZM623.81 440.33L623.81 440.33Q620.45 440.33 618.28 438.91Q616.12 437.50 615.67 435L615.67 435L620.73 434.20Q621.06 435.34 621.84 435.92Q622.62 436.50 624.01 436.50L624.01 436.50Q625.15 436.50 625.81 436.10Q626.46 435.70 626.46 435.05L626.46 435.05Q626.46 433.91 624.32 433.48L624.32 433.48L621.28 432.89Q616.10 431.91 616.10 427.86L616.10 427.86Q616.10 425.25 618.19 423.78Q620.28 422.31 623.79 422.31L623.79 422.31Q627.07 422.31 629.06 423.61Q631.04 424.91 631.49 427.16L631.49 427.16L626.68 427.92Q626.15 426.06 623.89 426.06L623.89 426.06Q622.90 426.06 622.22 426.46Q621.54 426.86 621.54 427.53L621.54 427.53Q621.54 428.06 621.96 428.46Q622.39 428.86 623.51 429.08L623.51 429.08L626.85 429.70Q631.99 430.67 631.99 434.42L631.99 434.42Q631.99 436.22 630.94 437.55Q629.89 438.88 628.04 439.60Q626.20 440.33 623.81 440.33ZM639.92 440L634.47 440L634.47 422.53L639.92 422.53L639.92 440ZM637.19 420.48L637.19 420.48Q636.03 420.48 635.21 419.72Q634.38 418.95 634.38 417.86L634.38 417.86Q634.38 416.77 635.21 416Q636.03 415.23 637.19 415.23L637.19 415.23Q638.36 415.23 639.19 416Q640.02 416.77 640.02 417.86L640.02 417.86Q640.02 418.95 639.19 419.72Q638.36 420.48 637.19 420.48ZM648.67 430.03L648.67 430.03L648.67 440L643.21 440L643.21 422.53L648.34 422.53L648.43 426.30Q649.12 424.48 650.45 423.40Q651.78 422.31 653.90 422.31L653.90 422.31Q656.64 422.31 658.29 424.11Q659.95 425.91 659.95 428.88L659.95 428.88L659.95 440L654.50 440L654.50 429.94Q654.50 428.47 653.75 427.63Q653.00 426.80 651.65 426.80L651.65 426.80Q650.32 426.80 649.50 427.65Q648.67 428.50 648.67 430.03ZM671.27 446.91L671.27 446.91Q667.85 446.91 665.74 445.64Q663.63 444.38 663.16 442.33L663.16 442.33L667.89 441.36Q668.13 442.06 668.95 442.59Q669.77 443.11 671.24 443.11L671.24 443.11Q672.91 443.11 673.81 442.36Q674.71 441.61 674.71 440.05L674.71 440.05L674.71 436.95L674.28 436.95Q673.80 438.14 672.65 438.95Q671.50 439.77 669.55 439.77L669.55 439.77Q667.63 439.77 666.04 438.87Q664.46 437.97 663.50 436.09Q662.55 434.20 662.55 431.27L662.55 431.27Q662.55 428.20 663.53 426.22Q664.50 424.23 666.10 423.27Q667.69 422.31 669.53 422.31L669.53 422.31Q671.61 422.31 672.82 423.33Q674.03 424.34 674.53 425.53L674.53 425.53L674.69 425.53L674.69 422.53L680.08 422.53L680.08 439.61Q680.08 442.02 678.96 443.64Q677.85 445.27 675.86 446.09Q673.88 446.91 671.27 446.91ZM671.41 435.77L671.41 435.77Q672.97 435.77 673.84 434.57Q674.71 433.38 674.71 431.25L674.71 431.25Q674.71 429.09 673.85 427.84Q672.99 426.58 671.41 426.58L671.41 426.58Q669.83 426.58 669.00 427.86Q668.16 429.14 668.16 431.25L668.16 431.25Q668.16 433.36 669.00 434.56Q669.85 435.77 671.41 435.77ZM700.52 440.25L700.52 440.25Q698.52 440.25 697.32 439.30Q696.13 438.36 695.61 437.17L695.61 437.17L695.43 437.17L695.43 440L690.04 440L690.04 416.72L695.49 416.72L695.49 425.53L695.61 425.53Q695.94 424.75 696.57 424.01Q697.19 423.27 698.18 422.79Q699.16 422.31 700.55 422.31L700.55 422.31Q702.39 422.31 703.98 423.28Q705.57 424.25 706.54 426.23Q707.52 428.22 707.52 431.28L707.52 431.28Q707.52 434.25 706.57 436.24Q705.63 438.23 704.04 439.24Q702.46 440.25 700.52 440.25ZM698.66 436L698.66 436Q700.24 436 701.07 434.70Q701.91 433.41 701.91 431.28L701.91 431.28Q701.91 429.16 701.07 427.87Q700.24 426.58 698.66 426.58L698.66 426.58Q697.10 426.58 696.23 427.84Q695.36 429.11 695.36 431.28L695.36 431.28Q695.36 433.42 696.23 434.71Q697.10 436 698.66 436ZM715.57 440L710.12 440L710.12 422.53L715.42 422.53L715.42 425.72L715.61 425.72Q716.07 424 717.16 423.16Q718.25 422.31 719.68 422.31L719.68 422.31Q720.48 422.31 721.23 422.50L721.23 422.50L721.23 427.25Q720.84 427.11 720.21 427.04Q719.57 426.97 719.07 426.97L719.07 426.97Q717.56 426.97 716.57 427.94Q715.57 428.91 715.57 430.47L715.57 430.47L715.57 440ZM728.13 440.31L728.13 440.31Q725.61 440.31 724.00 439.03Q722.38 437.75 722.38 435.16L722.38 435.16Q722.38 433.22 723.27 432.08Q724.16 430.94 725.64 430.39Q727.11 429.84 728.88 429.69L728.88 429.69Q731.10 429.50 732.06 429.23Q733.02 428.95 733.02 428.14L733.02 428.14L733.02 428.08Q733.02 427.17 732.39 426.68Q731.75 426.19 730.65 426.19L730.65 426.19Q729.50 426.19 728.77 426.67Q728.04 427.16 727.82 427.98L727.82 427.98L722.88 427.34Q723.40 425.11 725.40 423.71Q727.41 422.31 730.69 422.31L730.69 422.31Q732.86 422.31 734.62 422.98Q736.38 423.66 737.42 424.96Q738.46 426.27 738.46 428.14L738.46 428.14L738.46 440L733.33 440L733.33 437.55L733.19 437.55Q731.74 440.31 728.13 440.31ZM729.79 436.70L729.79 436.70Q731.16 436.70 732.11 435.89Q733.07 435.08 733.07 433.78L733.07 433.78L733.07 432.11Q732.60 432.36 731.71 432.53Q730.82 432.70 730.05 432.83L730.05 432.83Q727.54 433.20 727.54 434.91L727.54 434.91Q727.54 435.78 728.17 436.24Q728.80 436.70 729.79 436.70ZM749.86 440.33L749.86 440.33Q747.12 440.33 745.15 439.20Q743.18 438.06 742.13 436.04Q741.08 434.02 741.08 431.33L741.08 431.33Q741.08 428.64 742.13 426.61Q743.18 424.58 745.15 423.45Q747.12 422.31 749.86 422.31L749.86 422.31Q753.20 422.31 755.35 423.98Q757.50 425.66 757.90 428.52L757.90 428.52L752.87 429.36Q752.61 427.98 751.86 427.23Q751.12 426.48 749.92 426.48L749.92 426.48Q748.36 426.48 747.50 427.76Q746.64 429.03 746.64 431.30L746.64 431.30Q746.64 433.55 747.50 434.85Q748.36 436.16 749.92 436.16L749.92 436.16Q751.12 436.16 751.88 435.38Q752.64 434.59 752.89 433.19L752.89 433.19L757.92 434Q757.51 436.94 755.37 438.63Q753.23 440.33 749.86 440.33ZM768.61 440.33L768.61 440.33Q764.51 440.33 762.15 437.93Q759.80 435.53 759.80 431.33L759.80 431.33Q759.80 428.64 760.86 426.61Q761.91 424.58 763.85 423.45Q765.79 422.31 768.41 422.31L768.41 422.31Q770.86 422.31 772.76 423.34Q774.66 424.36 775.75 426.35Q776.83 428.34 776.83 431.22L776.83 431.22L776.83 432.59L765.16 432.59Q765.24 434.48 766.20 435.43Q767.16 436.38 768.71 436.38L768.71 436.38Q769.80 436.38 770.60 435.91Q771.40 435.45 771.72 434.58L771.72 434.58L776.58 435.38Q775.93 437.64 773.86 438.98Q771.79 440.33 768.61 440.33ZM765.19 429.42L765.19 429.42L771.66 429.42Q771.51 427.94 770.69 427.10Q769.88 426.27 768.46 426.27L768.46 426.27Q767.02 426.27 766.19 427.12Q765.35 427.97 765.19 429.42ZM786.73 440.33L786.73 440.33Q783.37 440.33 781.21 438.91Q779.04 437.50 778.59 435L778.59 435L783.65 434.20Q783.98 435.34 784.76 435.92Q785.54 436.50 786.94 436.50L786.94 436.50Q788.08 436.50 788.73 436.10Q789.39 435.70 789.39 435.05L789.39 435.05Q789.39 433.91 787.25 433.48L787.25 433.48L784.20 432.89Q779.03 431.91 779.03 427.86L779.03 427.86Q779.03 425.25 781.12 423.78Q783.20 422.31 786.72 422.31L786.72 422.31Q790.00 422.31 791.98 423.61Q793.97 424.91 794.42 427.16L794.42 427.16L789.61 427.92Q789.08 426.06 786.81 426.06L786.81 426.06Q785.83 426.06 785.15 426.46Q784.47 426.86 784.47 427.53L784.47 427.53Q784.47 428.06 784.89 428.46Q785.31 428.86 786.44 429.08L786.44 429.08L789.78 429.70Q794.92 430.67 794.92 434.42L794.92 434.42Q794.92 436.22 793.87 437.55Q792.81 438.88 790.97 439.60Q789.12 440.33 786.73 440.33Z"/>
  <path fill="#6b6275" d="M834.66 577.45L838.07 577.45L838.07 592L834.66 592L834.66 577.45ZM843.38 592.20L843.38 592.20Q841.81 592.20 840.80 591.39Q839.79 590.59 839.79 588.97L839.79 588.97Q839.79 587.76 840.35 587.05Q840.90 586.34 841.83 585.99Q842.75 585.65 843.85 585.55L843.85 585.55Q845.24 585.44 845.84 585.27Q846.44 585.10 846.44 584.59L846.44 584.59L846.44 584.55Q846.44 583.98 846.05 583.67Q845.65 583.37 844.96 583.37L844.96 583.37Q844.24 583.37 843.79 583.67Q843.33 583.97 843.19 584.49L843.19 584.49L840.10 584.09Q840.43 582.69 841.68 581.82Q842.94 580.95 844.99 580.95L844.99 580.95Q846.34 580.95 847.44 581.37Q848.54 581.79 849.19 582.60Q849.84 583.42 849.84 584.59L849.84 584.59L849.84 592L846.64 592L846.64 590.47L846.55 590.47Q845.64 592.20 843.38 592.20ZM844.42 589.94L844.42 589.94Q845.28 589.94 845.88 589.43Q846.47 588.92 846.47 588.11L846.47 588.11L846.47 587.07Q846.18 587.22 845.62 587.33Q845.06 587.44 844.59 587.52L844.59 587.52Q843.01 587.75 843.01 588.82L843.01 588.82Q843.01 589.36 843.41 589.65Q843.80 589.94 844.42 589.94ZM857.16 592.21L857.16 592.21Q855.46 592.21 854.22 591.50Q852.99 590.79 852.33 589.52Q851.68 588.26 851.68 586.58L851.68 586.58Q851.68 584.90 852.33 583.63Q852.99 582.36 854.22 581.65Q855.46 580.95 857.16 580.95L857.16 580.95Q859.25 580.95 860.60 581.99Q861.94 583.04 862.19 584.82L862.19 584.82L859.05 585.35Q858.88 584.49 858.42 584.02Q857.96 583.55 857.20 583.55L857.20 583.55Q856.23 583.55 855.69 584.35Q855.15 585.14 855.15 586.56L855.15 586.56Q855.15 587.97 855.69 588.78Q856.23 589.60 857.20 589.60L857.20 589.60Q857.96 589.60 858.43 589.11Q858.90 588.62 859.06 587.74L859.06 587.74L862.20 588.25Q861.95 590.09 860.61 591.15Q859.27 592.21 857.16 592.21ZM863.97 595.83L863.97 595.83L864.73 593.34L865.16 593.46Q866.08 593.70 866.65 593.43Q867.21 593.15 867.17 592.48L867.17 592.48L867.16 592.02L863.09 581.08L866.69 581.08L868.32 586.42Q868.53 587.13 868.68 587.83Q868.82 588.53 868.96 589.27L868.96 589.27Q869.13 588.52 869.31 587.82Q869.50 587.12 869.72 586.42L869.72 586.42L871.47 581.08L875.03 581.08L870.45 593.15Q869.95 594.48 868.96 595.32Q867.97 596.16 866.14 596.16L866.14 596.16Q864.82 596.16 863.97 595.83ZM879.77 592L876.36 592L876.36 581.08L879.50 581.08L879.65 583.25Q880.10 582.02 880.96 581.48Q881.81 580.94 882.80 580.94L882.80 580.94Q883.83 580.94 884.52 581.53Q885.21 582.13 885.61 583.46L885.61 583.46Q886.11 582.12 887.08 581.53Q888.05 580.94 889.16 580.94L889.16 580.94Q890.69 580.94 891.67 581.92Q892.65 582.91 892.65 584.64L892.65 584.64L892.65 592L889.24 592L889.24 585.41Q889.24 584.58 888.81 584.15Q888.38 583.72 887.71 583.72L887.71 583.72Q886.99 583.72 886.57 584.19Q886.15 584.67 886.15 585.45L886.15 585.45L886.15 592L882.88 592L882.88 585.36Q882.88 584.61 882.45 584.16Q882.03 583.72 881.35 583.72L881.35 583.72Q880.66 583.72 880.22 584.19Q879.77 584.66 879.77 585.52L879.77 585.52L879.77 592ZM899.98 592.21L899.98 592.21Q898.27 592.21 897.04 591.50Q895.81 590.79 895.15 589.52Q894.49 588.26 894.49 586.58L894.49 586.58Q894.49 584.90 895.15 583.63Q895.81 582.36 897.04 581.65Q898.27 580.95 899.98 580.95L899.98 580.95Q901.69 580.95 902.91 581.65Q904.14 582.36 904.80 583.63Q905.46 584.90 905.46 586.58L905.46 586.58Q905.46 588.26 904.80 589.52Q904.14 590.79 902.91 591.50Q901.69 592.21 899.98 592.21ZM899.98 589.60L899.98 589.60Q900.95 589.60 901.47 588.76Q901.99 587.93 901.99 586.56L901.99 586.56Q901.99 585.19 901.47 584.37Q900.95 583.55 899.98 583.55L899.98 583.55Q899 583.55 898.48 584.37Q897.96 585.19 897.96 586.56L897.96 586.56Q897.96 587.93 898.48 588.76Q899 589.60 899.98 589.60ZM910.70 592L907.29 592L907.29 581.08L910.60 581.08L910.60 583.07L910.72 583.07Q911.01 582 911.69 581.47Q912.37 580.95 913.27 580.95L913.27 580.95Q913.77 580.95 914.23 581.06L914.23 581.06L914.23 584.03Q913.99 583.94 913.59 583.90Q913.20 583.86 912.89 583.86L912.89 583.86Q911.94 583.86 911.32 584.46Q910.70 585.07 910.70 586.04L910.70 586.04L910.70 592ZM919.10 592L915.69 592L915.69 581.08L919 581.08L919 583.07L919.12 583.07Q919.41 582 920.09 581.47Q920.77 580.95 921.67 580.95L921.67 580.95Q922.16 580.95 922.63 581.06L922.63 581.06L922.63 584.03Q922.39 583.94 921.99 583.90Q921.60 583.86 921.29 583.86L921.29 583.86Q920.34 583.86 919.72 584.46Q919.10 585.07 919.10 586.04L919.10 586.04L919.10 592ZM929.16 592.21L929.16 592.21Q927.45 592.21 926.22 591.50Q924.99 590.79 924.33 589.52Q923.67 588.26 923.67 586.58L923.67 586.58Q923.67 584.90 924.33 583.63Q924.99 582.36 926.22 581.65Q927.45 580.95 929.16 580.95L929.16 580.95Q930.87 580.95 932.09 581.65Q933.32 582.36 933.98 583.63Q934.63 584.90 934.63 586.58L934.63 586.58Q934.63 588.26 933.98 589.52Q933.32 590.79 932.09 591.50Q930.87 592.21 929.16 592.21ZM929.16 589.60L929.16 589.60Q930.13 589.60 930.65 588.76Q931.17 587.93 931.17 586.56L931.17 586.56Q931.17 585.19 930.65 584.37Q930.13 583.55 929.16 583.55L929.16 583.55Q928.18 583.55 927.66 584.37Q927.14 585.19 927.14 586.56L927.14 586.56Q927.14 587.93 927.66 588.76Q928.18 589.60 929.16 589.60ZM942.15 592L938.68 592L935.49 581.08L939.06 581.08L939.86 584.82Q940.04 585.75 940.26 586.79Q940.47 587.82 940.68 589.00L940.68 589.00Q940.89 587.83 941.14 586.79Q941.38 585.75 941.60 584.82L941.60 584.82L942.47 581.08L945.49 581.08L946.33 584.82Q946.54 585.76 946.78 586.79Q947.03 587.83 947.25 589.02L947.25 589.02Q947.44 587.84 947.64 586.80Q947.85 585.76 948.04 584.82L948.04 584.82L948.83 581.08L952.46 581.08L949.24 592L945.77 592L944.63 588.08Q944.47 587.49 944.30 586.67Q944.13 585.86 943.96 585.07L943.96 585.07Q943.79 585.86 943.63 586.67Q943.46 587.49 943.29 588.08L943.29 588.08L942.15 592ZM957.49 576.77L960.40 576.77L955.71 594.19L952.80 594.19L957.49 576.77ZM968.72 592L964.77 592L960.82 581.08L964.41 581.08L966.04 586.42Q966.27 587.16 966.45 587.91Q966.63 588.66 966.80 589.45L966.80 589.45Q966.96 588.66 967.13 587.91Q967.31 587.17 967.54 586.42L967.54 586.42L969.14 581.08L972.69 581.08L968.72 592ZM978.63 592.21L978.63 592.21Q976.53 592.21 975.18 591.32Q973.82 590.44 973.54 588.88L973.54 588.88L976.71 588.38Q976.91 589.09 977.40 589.45Q977.89 589.81 978.76 589.81L978.76 589.81Q979.47 589.81 979.88 589.56Q980.29 589.31 980.29 588.90L980.29 588.90Q980.29 588.19 978.95 587.93L978.95 587.93L977.05 587.56Q973.81 586.94 973.81 584.41L973.81 584.41Q973.81 582.78 975.12 581.86Q976.42 580.95 978.62 580.95L978.62 580.95Q980.67 580.95 981.91 581.76Q983.15 582.57 983.43 583.97L983.43 583.97L980.43 584.45Q980.09 583.29 978.68 583.29L978.68 583.29Q978.06 583.29 977.64 583.54Q977.21 583.79 977.21 584.21L977.21 584.21Q977.21 584.54 977.48 584.79Q977.74 585.04 978.44 585.17L978.44 585.17L980.53 585.56Q983.75 586.17 983.75 588.51L983.75 588.51Q983.75 589.64 983.09 590.47Q982.43 591.30 981.28 591.75Q980.12 592.21 978.63 592.21ZM990.56 592.21L990.56 592.21Q988.85 592.21 987.62 591.50Q986.39 590.79 985.73 589.52Q985.07 588.26 985.07 586.58L985.07 586.58Q985.07 584.90 985.73 583.63Q986.39 582.36 987.62 581.65Q988.85 580.95 990.56 580.95L990.56 580.95Q992.65 580.95 994.00 581.99Q995.34 583.04 995.59 584.82L995.59 584.82L992.45 585.35Q992.28 584.49 991.82 584.02Q991.35 583.55 990.60 583.55L990.60 583.55Q989.63 583.55 989.09 584.35Q988.55 585.14 988.55 586.56L988.55 586.56Q988.55 587.97 989.09 588.78Q989.63 589.60 990.60 589.60L990.60 589.60Q991.35 589.60 991.83 589.11Q992.30 588.62 992.46 587.74L992.46 587.74L995.60 588.25Q995.35 590.09 994.01 591.15Q992.67 592.21 990.56 592.21ZM1002.47 592.21L1002.47 592.21Q1000.76 592.21 999.53 591.50Q998.30 590.79 997.64 589.52Q996.98 588.26 996.98 586.58L996.98 586.58Q996.98 584.90 997.64 583.63Q998.30 582.36 999.53 581.65Q1000.76 580.95 1002.47 580.95L1002.47 580.95Q1004.18 580.95 1005.40 581.65Q1006.63 582.36 1007.29 583.63Q1007.95 584.90 1007.95 586.58L1007.95 586.58Q1007.95 588.26 1007.29 589.52Q1006.63 590.79 1005.40 591.50Q1004.18 592.21 1002.47 592.21ZM1002.47 589.60L1002.47 589.60Q1003.44 589.60 1003.96 588.76Q1004.48 587.93 1004.48 586.56L1004.48 586.56Q1004.48 585.19 1003.96 584.37Q1003.44 583.55 1002.47 583.55L1002.47 583.55Q1001.49 583.55 1000.97 584.37Q1000.46 585.19 1000.46 586.56L1000.46 586.56Q1000.46 587.93 1000.97 588.76Q1001.49 589.60 1002.47 589.60ZM1013.74 592.16L1013.74 592.16Q1012.53 592.16 1011.53 591.53Q1010.53 590.90 1009.95 589.65Q1009.36 588.41 1009.36 586.55L1009.36 586.55Q1009.36 584.64 1009.97 583.40Q1010.58 582.16 1011.57 581.55Q1012.56 580.95 1013.71 580.95L1013.71 580.95Q1014.58 580.95 1015.19 581.24Q1015.81 581.54 1016.20 582.00Q1016.60 582.47 1016.80 582.96L1016.80 582.96L1016.88 582.96L1016.88 577.45L1020.28 577.45L1020.28 592L1016.92 592L1016.92 590.23L1016.80 590.23Q1016.48 590.97 1015.73 591.57Q1014.99 592.16 1013.74 592.16ZM1014.90 589.50L1014.90 589.50Q1015.87 589.50 1016.41 588.69Q1016.96 587.89 1016.96 586.55L1016.96 586.55Q1016.96 585.19 1016.42 584.40Q1015.88 583.61 1014.90 583.61L1014.90 583.61Q1013.91 583.61 1013.39 584.42Q1012.87 585.22 1012.87 586.55L1012.87 586.55Q1012.87 587.88 1013.39 588.69Q1013.91 589.50 1014.90 589.50ZM1027.62 592.21L1027.62 592.21Q1025.05 592.21 1023.58 590.71Q1022.12 589.21 1022.12 586.58L1022.12 586.58Q1022.12 584.90 1022.77 583.63Q1023.43 582.36 1024.64 581.65Q1025.86 580.95 1027.50 580.95L1027.50 580.95Q1029.03 580.95 1030.22 581.58Q1031.40 582.22 1032.08 583.47Q1032.76 584.71 1032.76 586.51L1032.76 586.51L1032.76 587.37L1025.46 587.37Q1025.51 588.55 1026.11 589.14Q1026.71 589.73 1027.68 589.73L1027.68 589.73Q1028.37 589.73 1028.86 589.45Q1029.36 589.16 1029.57 588.61L1029.57 588.61L1032.60 589.11Q1032.19 590.53 1030.90 591.37Q1029.61 592.21 1027.62 592.21ZM1025.48 585.39L1025.48 585.39L1029.53 585.39Q1029.43 584.46 1028.92 583.94Q1028.41 583.42 1027.53 583.42L1027.53 583.42Q1026.63 583.42 1026.10 583.95Q1025.58 584.48 1025.48 585.39ZM1034.78 584.79L1041.49 584.79L1041.49 587.42L1034.78 587.42L1034.78 584.79ZM1047.38 592L1043.97 592L1043.97 581.08L1047.38 581.08L1047.38 592ZM1045.67 579.80L1045.67 579.80Q1044.95 579.80 1044.43 579.32Q1043.91 578.85 1043.91 578.16L1043.91 578.16Q1043.91 577.48 1044.43 577Q1044.95 576.52 1045.67 576.52L1045.67 576.52Q1046.40 576.52 1046.92 577Q1047.44 577.48 1047.44 578.16L1047.44 578.16Q1047.44 578.85 1046.92 579.32Q1046.40 579.80 1045.67 579.80ZM1053.93 581.08L1056.12 581.08L1056.12 583.61L1053.93 583.61L1053.93 592L1050.54 592L1050.54 583.61L1048.71 583.61L1048.71 581.08L1050.54 581.08L1050.54 580.50Q1050.54 578.62 1051.58 577.69Q1052.61 576.77 1054.25 576.77L1054.25 576.77Q1054.98 576.77 1055.61 576.88Q1056.25 576.99 1056.55 577.08L1056.55 577.08L1056.00 579.57Q1055.81 579.52 1055.54 579.48Q1055.28 579.43 1055.02 579.43L1055.02 579.43Q1054.41 579.43 1054.17 579.71Q1053.93 579.99 1053.93 580.47L1053.93 580.47L1053.93 581.08ZM1058.06 584.79L1064.77 584.79L1064.77 587.42L1058.06 587.42L1058.06 584.79ZM1072.34 592.21L1072.34 592.21Q1069.77 592.21 1068.30 590.71Q1066.83 589.21 1066.83 586.58L1066.83 586.58Q1066.83 584.90 1067.49 583.63Q1068.15 582.36 1069.36 581.65Q1070.57 580.95 1072.21 580.95L1072.21 580.95Q1073.75 580.95 1074.93 581.58Q1076.12 582.22 1076.80 583.47Q1077.48 584.71 1077.48 586.51L1077.48 586.51L1077.48 587.37L1070.18 587.37Q1070.23 588.55 1070.83 589.14Q1071.43 589.73 1072.40 589.73L1072.40 589.73Q1073.08 589.73 1073.58 589.45Q1074.08 589.16 1074.28 588.61L1074.28 588.61L1077.32 589.11Q1076.91 590.53 1075.62 591.37Q1074.32 592.21 1072.34 592.21ZM1070.20 585.39L1070.20 585.39L1074.24 585.39Q1074.15 584.46 1073.64 583.94Q1073.13 583.42 1072.24 583.42L1072.24 583.42Q1071.34 583.42 1070.82 583.95Q1070.30 584.48 1070.20 585.39ZM1082.67 585.77L1082.67 585.77L1082.67 592L1079.26 592L1079.26 581.08L1082.47 581.08L1082.53 583.44Q1082.96 582.30 1083.79 581.62Q1084.62 580.95 1085.94 580.95L1085.94 580.95Q1087.65 580.95 1088.69 582.07Q1089.72 583.19 1089.72 585.05L1089.72 585.05L1089.72 592L1086.31 592L1086.31 585.71Q1086.31 584.79 1085.85 584.27Q1085.38 583.75 1084.54 583.75L1084.54 583.75Q1083.71 583.75 1083.19 584.28Q1082.67 584.81 1082.67 585.77ZM1095.92 592.16L1095.92 592.16Q1094.71 592.16 1093.72 591.53Q1092.72 590.90 1092.13 589.65Q1091.55 588.41 1091.55 586.55L1091.55 586.55Q1091.55 584.64 1092.16 583.40Q1092.77 582.16 1093.76 581.55Q1094.75 580.95 1095.89 580.95L1095.89 580.95Q1096.76 580.95 1097.38 581.24Q1097.99 581.54 1098.39 582.00Q1098.79 582.47 1098.99 582.96L1098.99 582.96L1099.07 582.96L1099.07 577.45L1102.47 577.45L1102.47 592L1099.11 592L1099.11 590.23L1098.99 590.23Q1098.67 590.97 1097.92 591.57Q1097.17 592.16 1095.92 592.16ZM1097.09 589.50L1097.09 589.50Q1098.05 589.50 1098.60 588.69Q1099.15 587.89 1099.15 586.55L1099.15 586.55Q1099.15 585.19 1098.60 584.40Q1098.06 583.61 1097.09 583.61L1097.09 583.61Q1096.10 583.61 1095.58 584.42Q1095.05 585.22 1095.05 586.55L1095.05 586.55Q1095.05 587.88 1095.58 588.69Q1096.10 589.50 1097.09 589.50ZM1104.96 584.79L1111.67 584.79L1111.67 587.42L1104.96 587.42L1104.96 584.79ZM1117.55 592L1114.15 592L1114.15 581.08L1117.28 581.08L1117.44 583.25Q1117.89 582.02 1118.74 581.48Q1119.60 580.94 1120.58 580.94L1120.58 580.94Q1121.62 580.94 1122.31 581.53Q1122.99 582.13 1123.39 583.46L1123.39 583.46Q1123.89 582.12 1124.86 581.53Q1125.84 580.94 1126.94 580.94L1126.94 580.94Q1128.47 580.94 1129.45 581.92Q1130.44 582.91 1130.44 584.64L1130.44 584.64L1130.44 592L1127.03 592L1127.03 585.41Q1127.03 584.58 1126.60 584.15Q1126.17 583.72 1125.49 583.72L1125.49 583.72Q1124.77 583.72 1124.35 584.19Q1123.93 584.67 1123.93 585.45L1123.93 585.45L1123.93 592L1120.66 592L1120.66 585.36Q1120.66 584.61 1120.24 584.16Q1119.81 583.72 1119.14 583.72L1119.14 583.72Q1118.44 583.72 1118.00 584.19Q1117.55 584.66 1117.55 585.52L1117.55 585.52L1117.55 592ZM1135.75 592.20L1135.75 592.20Q1134.18 592.20 1133.17 591.39Q1132.15 590.59 1132.15 588.97L1132.15 588.97Q1132.15 587.76 1132.71 587.05Q1133.27 586.34 1134.19 585.99Q1135.11 585.65 1136.22 585.55L1136.22 585.55Q1137.60 585.44 1138.20 585.27Q1138.80 585.10 1138.80 584.59L1138.80 584.59L1138.80 584.55Q1138.80 583.98 1138.41 583.67Q1138.01 583.37 1137.32 583.37L1137.32 583.37Q1136.61 583.37 1136.15 583.67Q1135.69 583.97 1135.55 584.49L1135.55 584.49L1132.47 584.09Q1132.79 582.69 1134.04 581.82Q1135.30 580.95 1137.35 580.95L1137.35 580.95Q1138.71 580.95 1139.81 581.37Q1140.90 581.79 1141.55 582.60Q1142.20 583.42 1142.20 584.59L1142.20 584.59L1142.20 592L1139 592L1139 590.47L1138.91 590.47Q1138.00 592.20 1135.75 592.20ZM1136.78 589.94L1136.78 589.94Q1137.64 589.94 1138.24 589.43Q1138.83 588.92 1138.83 588.11L1138.83 588.11L1138.83 587.07Q1138.54 587.22 1137.98 587.33Q1137.43 587.44 1136.95 587.52L1136.95 587.52Q1135.38 587.75 1135.38 588.82L1135.38 588.82Q1135.38 589.36 1135.77 589.65Q1136.17 589.94 1136.78 589.94ZM1147.87 592L1144.46 592L1144.46 581.08L1147.77 581.08L1147.77 583.07L1147.89 583.07Q1148.18 582 1148.86 581.47Q1149.54 580.95 1150.44 580.95L1150.44 580.95Q1150.93 580.95 1151.40 581.06L1151.40 581.06L1151.40 584.03Q1151.16 583.94 1150.76 583.90Q1150.37 583.86 1150.05 583.86L1150.05 583.86Q1149.11 583.86 1148.49 584.46Q1147.87 585.07 1147.87 586.04L1147.87 586.04L1147.87 592ZM1156.27 592L1152.86 592L1152.86 577.45L1156.27 577.45L1156.27 585.03L1156.42 585.03L1159.55 581.08L1163.42 581.08L1159.53 585.85L1163.58 592L1159.64 592L1156.99 587.83L1156.27 588.69L1156.27 592ZM1169.80 592.21L1169.80 592.21Q1167.23 592.21 1165.76 590.71Q1164.29 589.21 1164.29 586.58L1164.29 586.58Q1164.29 584.90 1164.95 583.63Q1165.61 582.36 1166.82 581.65Q1168.03 580.95 1169.67 580.95L1169.67 580.95Q1171.21 580.95 1172.39 581.58Q1173.58 582.22 1174.26 583.47Q1174.94 584.71 1174.94 586.51L1174.94 586.51L1174.94 587.37L1167.64 587.37Q1167.69 588.55 1168.29 589.14Q1168.89 589.73 1169.86 589.73L1169.86 589.73Q1170.54 589.73 1171.04 589.45Q1171.54 589.16 1171.74 588.61L1171.74 588.61L1174.78 589.11Q1174.37 590.53 1173.08 591.37Q1171.78 592.21 1169.80 592.21ZM1167.66 585.39L1167.66 585.39L1171.71 585.39Q1171.61 584.46 1171.10 583.94Q1170.59 583.42 1169.70 583.42L1169.70 583.42Q1168.80 583.42 1168.28 583.95Q1167.76 584.48 1167.66 585.39ZM1180.13 592L1176.72 592L1176.72 581.08L1180.04 581.08L1180.04 583.07L1180.15 583.07Q1180.45 582 1181.12 581.47Q1181.80 580.95 1182.70 580.95L1182.70 580.95Q1183.20 580.95 1183.67 581.06L1183.67 581.06L1183.67 584.03Q1183.42 583.94 1183.03 583.90Q1182.63 583.86 1182.32 583.86L1182.32 583.86Q1181.37 583.86 1180.75 584.46Q1180.13 585.07 1180.13 586.04L1180.13 586.04L1180.13 592Z"/>
</svg>
