<svg xmlns="http://www.w3.org/2000/svg" viewBox="0 0 1280 640" fill="none">
  <title>vscode-if-end-marker — Inline markers at if-statement closing braces</title>
  <defs>
    <radialGradient id="g" cx="80%" cy="20%" r="80%">
      <stop offset="0%" stop-color="#3b82f6" stop-opacity="0.20"/>
      <stop offset="60%" stop-color="#0a0510" stop-opacity="0"/>
    </radialGradient>
    <pattern id="grid" width="40" height="40" patternUnits="userSpaceOnUse">
      <path d="M 40 0 L 0 0 0 40" fill="none" stroke="#ffffff" stroke-opacity="0.04" stroke-width="1"/>
    </pattern>
  </defs>
  <rect width="1280" height="640" fill="#0a0510"/>
  <rect width="1280" height="640" fill="url(#grid)"/>
  <rect width="1280" height="640" fill="url(#g)"/>

  <!-- Large decorative mark on right (low opacity) -->
  <g transform="translate(820, 120) scale(1.7)" opacity="0.10">
    <rect x="0" y="0" width="256" height="256" rx="56" fill="#3b82f6"/>
    
			<g fill="none" stroke="#ffffff" stroke-width="18" stroke-linecap="round" stroke-linejoin="round">
				<path d="M 112 60 Q 92 60 92 80 L 92 116 Q 92 128 72 128 Q 92 128 92 140 L 92 176 Q 92 196 112 196"/>
				<path d="M 144 60 Q 164 60 164 80 L 164 116 Q 164 128 184 128 Q 164 128 164 140 L 164 176 Q 164 196 144 196"/>
			</g>
  </g>

  <!-- Small primary mark, top-left -->
  <g transform="translate(96, 96) scale(0.47)">
    <rect x="0" y="0" width="256" height="256" rx="56" fill="#3b82f6"/>
    
			<g fill="none" stroke="#ffffff" stroke-width="18" stroke-linecap="round" stroke-linejoin="round">
				<path d="M 112 60 Q 92 60 92 80 L 92 116 Q 92 128 72 128 Q 92 128 92 140 L 92 176 Q 92 196 112 196"/>
				<path d="M 144 60 Q 164 60 164 80 L 164 116 Q 164 128 184 128 Q 164 128 164 140 L 164 176 Q 164 196 144 196"/>
			</g>
  </g>

  <!-- Package-type pill, top-right -->
  <g transform="translate(891, 80)">
    <rect x="0" y="0" width="293" height="36" rx="18" fill="#3b82f6" fill-opacity="0.16" stroke="#3b82f6" stroke-opacity="0.50" stroke-width="1"/>
    <g transform="translate(18, 24.5)"><path fill="#3b82f6" d="M11.08 0L6.00 0L0.50-16.01L4.77-16.01L6.99-9.01Q7.40-7.65 7.79-6.18Q8.17-4.71 8.56-3.10L8.56-3.10Q8.94-4.71 9.31-6.18Q9.68-7.65 10.08-9.01L10.08-9.01L12.21-16.01L16.42-16.01L11.08 0ZM25.67 0.21L25.67 0.21Q22.66 0.21 20.87-1.15Q19.07-2.51 19.02-5.29L19.02-5.29L22.66-5.29Q22.73-4.11 23.53-3.52Q24.33-2.93 25.63-2.93L25.63-2.93Q26.81-2.93 27.49-3.41Q28.16-3.89 28.16-4.65L28.16-4.65Q28.16-5.34 27.53-5.74Q26.89-6.14 25.58-6.45L25.58-6.45L23.88-6.84Q21.81-7.32 20.62-8.39Q19.44-9.46 19.44-11.27L19.44-11.27Q19.44-12.75 20.24-13.86Q21.04-14.97 22.45-15.60Q23.86-16.22 25.67-16.22L25.67-16.22Q27.53-16.22 28.90-15.59Q30.26-14.96 31.01-13.84Q31.76-12.72 31.78-11.24L31.78-11.24L28.14-11.24Q28.07-12.11 27.43-12.59Q26.80-13.07 25.66-13.07L25.66-13.07Q24.52-13.07 23.94-12.63Q23.36-12.19 23.36-11.53L23.36-11.53Q23.36-10.79 24.01-10.38Q24.65-9.98 25.73-9.74L25.73-9.74L27.11-9.42Q29.43-8.91 30.72-7.73Q32.00-6.56 32.00-4.64L32.00-4.64Q32.00-2.36 30.32-1.07Q28.65 0.21 25.67 0.21ZM48.68 0.21L48.68 0.21Q46.52 0.21 44.81-0.74Q43.09-1.70 42.10-3.53Q41.11-5.36 41.11-7.99L41.11-7.99Q41.11-10.63 42.11-12.47Q43.12-14.31 44.83-15.26Q46.55-16.22 48.68-16.22L48.68-16.22Q50.58-16.22 52.10-15.53Q53.61-14.85 54.57-13.54Q55.52-12.22 55.75-10.36L55.75-10.36L51.91-10.36Q51.73-11.53 50.90-12.21Q50.07-12.89 48.78-12.89L48.78-12.89Q47.01-12.89 46.00-11.61Q44.98-10.32 44.98-7.99L44.98-7.99Q44.98-5.59 46.00-4.35Q47.03-3.12 48.75-3.12L48.75-3.12Q50.04-3.12 50.88-3.80Q51.72-4.48 51.92-5.65L51.92-5.65L55.76-5.65Q55.65-4.58 55.14-3.53Q54.63-2.49 53.74-1.64Q52.85-0.79 51.58-0.29Q50.31 0.21 48.68 0.21ZM66.41 0.21L66.41 0.21Q64.25 0.21 62.53-0.74Q60.81-1.70 59.80-3.53Q58.79-5.37 58.79-7.99L58.79-7.99Q58.79-10.63 59.80-12.47Q60.81-14.31 62.53-15.26Q64.25-16.22 66.41-16.22L66.41-16.22Q68.55-16.22 70.28-15.26Q72.00-14.31 73.01-12.47Q74.02-10.63 74.02-7.99L74.02-7.99Q74.02-5.36 73.01-3.52Q72.00-1.69 70.28-0.74Q68.55 0.21 66.41 0.21ZM66.41-3.12L66.41-3.12Q68.15-3.12 69.15-4.37Q70.15-5.62 70.15-7.99L70.15-7.99Q70.15-10.38 69.15-11.63Q68.15-12.89 66.41-12.89L66.41-12.89Q64.66-12.89 63.66-11.63Q62.66-10.38 62.66-7.99L62.66-7.99Q62.66-5.62 63.66-4.37Q64.66-3.12 66.41-3.12ZM83.36 0L83.36 0L77.48 0L77.48-16.01L83.36-16.01Q85.80-16.01 87.56-15.04Q89.33-14.08 90.28-12.29Q91.24-10.50 91.24-8.00L91.24-8.00Q91.24-5.50 90.28-3.71Q89.33-1.92 87.56-0.96Q85.80 0 83.36 0ZM81.27-12.76L81.27-3.24L83.20-3.24Q85.27-3.24 86.36-4.32Q87.45-5.40 87.45-8.00L87.45-8.00Q87.45-10.60 86.35-11.68Q85.25-12.76 83.15-12.76L83.15-12.76L81.27-12.76ZM105.79 0L94.70 0L94.70-16.01L105.80-16.01L105.80-12.91L98.49-12.91L98.49-9.60L105.22-9.60L105.22-6.57L98.49-6.57L98.49-3.09L105.79-3.09L105.79 0ZM126.66 0L115.56 0L115.56-16.01L126.67-16.01L126.67-12.91L119.36-12.91L119.36-9.60L126.09-9.60L126.09-6.57L119.36-6.57L119.36-3.09L126.66-3.09L126.66 0ZM133.98 0L129.58 0L135.34-8.19L130.15-16.01L134.55-16.01L136.07-13.61Q136.56-12.83 136.88-12.16Q137.20-11.49 137.48-10.88L137.48-10.88Q137.76-11.49 138.08-12.16Q138.40-12.83 138.90-13.61L138.90-13.61L140.45-16.01L144.73-16.01L139.63-8.29L145.28 0L140.78 0L138.78-3.06Q138.24-3.89 137.97-4.42Q137.70-4.94 137.42-5.47L137.42-5.47Q137.14-4.95 136.87-4.42Q136.60-3.89 136.05-3.06L136.05-3.06L133.98 0ZM152.68-12.91L147.83-12.91L147.83-16.01L161.30-16.01L161.30-12.91L156.46-12.91L156.46 0L152.68 0L152.68-12.91ZM175.67 0L164.58 0L164.58-16.01L175.69-16.01L175.69-12.91L168.37-12.91L168.37-9.60L175.10-9.60L175.10-6.57L168.37-6.57L168.37-3.09L175.67-3.09L175.67 0ZM183.20 0L179.31 0L179.31-16.01L183.48-16.01L187.95-8.78Q188.49-7.88 188.99-6.92Q189.50-5.95 190.00-4.64L190.00-4.64Q189.92-5.84 189.85-7.10Q189.78-8.36 189.78-9.20L189.78-9.20L189.78-16.01L193.67-16.01L193.67 0L189.49 0L185.39-6.63Q184.92-7.40 184.54-8.10Q184.16-8.80 183.79-9.56Q183.42-10.32 182.97-11.28L182.97-11.28Q183.06-9.86 183.13-8.62Q183.20-7.38 183.20-6.63L183.20-6.63L183.20 0ZM203.66 0.21L203.66 0.21Q200.65 0.21 198.85-1.15Q197.05-2.51 197.01-5.29L197.01-5.29L200.65-5.29Q200.71-4.11 201.51-3.52Q202.31-2.93 203.61-2.93L203.61-2.93Q204.79-2.93 205.47-3.41Q206.15-3.89 206.15-4.65L206.15-4.65Q206.15-5.34 205.51-5.74Q204.87-6.14 203.56-6.45L203.56-6.45L201.86-6.84Q199.79-7.32 198.61-8.39Q197.42-9.46 197.42-11.27L197.42-11.27Q197.42-12.75 198.22-13.86Q199.03-14.97 200.43-15.60Q201.84-16.22 203.66-16.22L203.66-16.22Q205.51-16.22 206.88-15.59Q208.24-14.96 208.99-13.84Q209.75-12.72 209.77-11.24L209.77-11.24L206.13-11.24Q206.05-12.11 205.42-12.59Q204.78-13.07 203.64-13.07L203.64-13.07Q202.51-13.07 201.93-12.63Q201.35-12.19 201.35-11.53L201.35-11.53Q201.35-10.79 201.99-10.38Q202.63-9.98 203.71-9.74L203.71-9.74L205.09-9.42Q207.41-8.91 208.70-7.73Q209.98-6.56 209.98-4.64L209.98-4.64Q209.98-2.36 208.31-1.07Q206.63 0.21 203.66 0.21ZM213.32-16.01L217.11-16.01L217.11 0L213.32 0L213.32-16.01ZM228.19 0.21L228.19 0.21Q226.03 0.21 224.30-0.74Q222.58-1.70 221.57-3.53Q220.56-5.37 220.56-7.99L220.56-7.99Q220.56-10.63 221.57-12.47Q222.58-14.31 224.30-15.26Q226.03-16.22 228.19-16.22L228.19-16.22Q230.33-16.22 232.05-15.26Q233.77-14.31 234.78-12.47Q235.79-10.63 235.79-7.99L235.79-7.99Q235.79-5.36 234.78-3.52Q233.77-1.69 232.05-0.74Q230.33 0.21 228.19 0.21ZM228.19-3.12L228.19-3.12Q229.93-3.12 230.93-4.37Q231.93-5.62 231.93-7.99L231.93-7.99Q231.93-10.38 230.93-11.63Q229.93-12.89 228.19-12.89L228.19-12.89Q226.44-12.89 225.44-11.63Q224.44-10.38 224.44-7.99L224.44-7.99Q224.44-5.62 225.44-4.37Q226.44-3.12 228.19-3.12ZM243.14 0L239.25 0L239.25-16.01L243.42-16.01L247.89-8.78Q248.42-7.88 248.93-6.92Q249.43-5.95 249.94-4.64L249.94-4.64Q249.85-5.84 249.78-7.10Q249.71-8.36 249.71-9.20L249.71-9.20L249.71-16.01L253.60-16.01L253.60 0L249.42 0L245.33-6.63Q244.86-7.40 244.48-8.10Q244.10-8.80 243.72-9.56Q243.35-10.32 242.90-11.28L242.90-11.28Q243.00-9.86 243.07-8.62Q243.14-7.38 243.14-6.63L243.14-6.63L243.14 0Z"/></g>
  </g>

  <!-- Wordmark + tagline -->
  <path fill="#fafafa" d="M138.95 360L120.02 360L101.03 307.59L118.28 307.59L126.11 333.23Q127.19 336.75 128.05 340.36Q128.92 343.97 129.77 347.77L129.77 347.77Q130.52 343.97 131.36 340.38Q132.20 336.80 133.28 333.23L133.28 333.23L140.97 307.59L158.03 307.59L138.95 360ZM181.73 360.98L181.73 360.98Q171.65 360.98 165.16 356.74Q158.67 352.50 157.31 345L157.31 345L172.50 342.61Q173.48 346.03 175.82 347.77Q178.17 349.50 182.34 349.50L182.34 349.50Q185.76 349.50 187.73 348.30Q189.70 347.11 189.70 345.14L189.70 345.14Q189.70 341.72 183.28 340.45L183.28 340.45L174.14 338.67Q158.62 335.72 158.62 323.58L158.62 323.58Q158.62 315.75 164.88 311.34Q171.14 306.94 181.68 306.94L181.68 306.94Q191.53 306.94 197.48 310.83Q203.43 314.72 204.79 321.47L204.79 321.47L190.36 323.77Q188.76 318.19 181.97 318.19L181.97 318.19Q179.01 318.19 176.97 319.38Q174.93 320.58 174.93 322.59L174.93 322.59Q174.93 324.19 176.20 325.38Q177.47 326.58 180.84 327.23L180.84 327.23L190.87 329.11Q206.29 332.02 206.29 343.27L206.29 343.27Q206.29 348.66 203.13 352.64Q199.97 356.63 194.43 358.80Q188.90 360.98 181.73 360.98ZM234.21 360.98L234.21 360.98Q226.01 360.98 220.10 357.59Q214.20 354.19 211.03 348.12Q207.87 342.05 207.87 333.98L207.87 333.98Q207.87 325.92 211.03 319.83Q214.20 313.73 220.10 310.34Q226.01 306.94 234.21 306.94L234.21 306.94Q244.24 306.94 250.69 311.95Q257.13 316.97 258.35 325.55L258.35 325.55L243.26 328.08Q242.46 323.95 240.24 321.70Q238.01 319.45 234.40 319.45L234.40 319.45Q229.71 319.45 227.13 323.27Q224.56 327.09 224.56 333.89L224.56 333.89Q224.56 340.64 227.13 344.55Q229.71 348.47 234.40 348.47L234.40 348.47Q238.01 348.47 240.28 346.13Q242.56 343.78 243.31 339.56L243.31 339.56L258.40 342Q257.18 350.81 250.76 355.90Q244.34 360.98 234.21 360.98ZM286.55 360.98L286.55 360.98Q278.35 360.98 272.44 357.59Q266.54 354.19 263.37 348.12Q260.21 342.05 260.21 333.98L260.21 333.98Q260.21 325.92 263.37 319.83Q266.54 313.73 272.44 310.34Q278.35 306.94 286.55 306.94L286.55 306.94Q294.76 306.94 300.64 310.34Q306.52 313.73 309.69 319.83Q312.85 325.92 312.85 333.98L312.85 333.98Q312.85 342.05 309.69 348.12Q306.52 354.19 300.64 357.59Q294.76 360.98 286.55 360.98ZM286.55 348.47L286.55 348.47Q291.24 348.47 293.72 344.46Q296.21 340.45 296.21 333.89L296.21 333.89Q296.21 327.33 293.72 323.39Q291.24 319.45 286.55 319.45L286.55 319.45Q281.87 319.45 279.38 323.39Q276.90 327.33 276.90 333.89L276.90 333.89Q276.90 340.45 279.38 344.46Q281.87 348.47 286.55 348.47ZM335.85 360.75L335.85 360.75Q330.03 360.75 325.25 357.73Q320.47 354.70 317.66 348.73Q314.85 342.75 314.85 333.84L314.85 333.84Q314.85 324.66 317.78 318.70Q320.71 312.75 325.46 309.84Q330.22 306.94 335.71 306.94L335.71 306.94Q339.88 306.94 342.83 308.37Q345.78 309.80 347.68 312.02Q349.58 314.25 350.57 316.59L350.57 316.59L350.94 316.59L350.94 290.16L367.25 290.16L367.25 360L351.13 360L351.13 351.52L350.57 351.52Q349.02 355.08 345.43 357.91Q341.85 360.75 335.85 360.75ZM341.42 348L341.42 348Q346.07 348 348.69 344.13Q351.32 340.27 351.32 333.84L351.32 333.84Q351.32 327.33 348.71 323.53Q346.11 319.73 341.42 319.73L341.42 319.73Q336.69 319.73 334.18 323.60Q331.67 327.47 331.67 333.84L331.67 333.84Q331.67 340.22 334.18 344.11Q336.69 348 341.42 348ZM397.70 360.98L397.70 360.98Q385.37 360.98 378.32 353.79Q371.27 346.59 371.27 333.98L371.27 333.98Q371.27 325.92 374.43 319.83Q377.59 313.73 383.41 310.34Q389.22 306.94 397.09 306.94L397.09 306.94Q404.45 306.94 410.15 310.01Q415.84 313.08 419.10 319.05Q422.36 325.03 422.36 333.66L422.36 333.66L422.36 337.78L387.34 337.78Q387.58 343.45 390.46 346.29Q393.34 349.13 397.98 349.13L397.98 349.13Q401.27 349.13 403.66 347.74Q406.05 346.36 407.03 343.73L407.03 343.73L421.61 346.13Q419.64 352.92 413.43 356.95Q407.22 360.98 397.70 360.98ZM387.44 328.27L387.44 328.27L406.84 328.27Q406.37 323.81 403.94 321.30Q401.50 318.80 397.23 318.80L397.23 318.80Q392.92 318.80 390.41 321.35Q387.91 323.91 387.44 328.27ZM427.26 325.41L459.47 325.41L459.47 338.02L427.26 338.02L427.26 325.41ZM482.93 360L466.57 360L466.57 307.59L482.93 307.59L482.93 360ZM474.73 301.45L474.73 301.45Q471.26 301.45 468.77 299.16Q466.29 296.86 466.29 293.58L466.29 293.58Q466.29 290.30 468.77 288Q471.26 285.70 474.73 285.70L474.73 285.70Q478.24 285.70 480.73 288Q483.21 290.30 483.21 293.58L483.21 293.58Q483.21 296.86 480.73 299.16Q478.24 301.45 474.73 301.45ZM509.58 307.59L520.08 307.59L520.08 319.73L509.58 319.73L509.58 360L493.32 360L493.32 319.73L484.51 319.73L484.51 307.59L493.32 307.59L493.32 304.78Q493.32 295.78 498.29 291.33Q503.26 286.88 511.13 286.88L511.13 286.88Q514.60 286.88 517.65 287.41Q520.69 287.95 522.15 288.38L522.15 288.38L519.52 300.33Q518.58 300.09 517.32 299.88Q516.05 299.67 514.79 299.67L514.79 299.67Q511.88 299.67 510.73 301.01Q509.58 302.34 509.58 304.64L509.58 304.64L509.58 307.59ZM524.61 325.41L556.82 325.41L556.82 338.02L524.61 338.02L524.61 325.41ZM588.34 360.98L588.34 360.98Q576.02 360.98 568.96 353.79Q561.91 346.59 561.91 333.98L561.91 333.98Q561.91 325.92 565.07 319.83Q568.23 313.73 574.05 310.34Q579.86 306.94 587.73 306.94L587.73 306.94Q595.09 306.94 600.79 310.01Q606.48 313.08 609.74 319.05Q613 325.03 613 333.66L613 333.66L613 337.78L577.98 337.78Q578.22 343.45 581.10 346.29Q583.98 349.13 588.63 349.13L588.63 349.13Q591.91 349.13 594.30 347.74Q596.69 346.36 597.67 343.73L597.67 343.73L612.25 346.13Q610.28 352.92 604.07 356.95Q597.86 360.98 588.34 360.98ZM578.08 328.27L578.08 328.27L597.48 328.27Q597.02 323.81 594.58 321.30Q592.14 318.80 587.88 318.80L587.88 318.80Q583.56 318.80 581.05 321.35Q578.55 323.91 578.08 328.27ZM633.14 330.09L633.14 330.09L633.14 360L616.78 360L616.78 307.59L632.15 307.59L632.43 318.89Q634.50 313.45 638.48 310.20Q642.47 306.94 648.84 306.94L648.84 306.94Q657.04 306.94 662.01 312.33Q666.98 317.72 666.98 326.63L666.98 326.63L666.98 360L650.62 360L650.62 329.81Q650.62 325.41 648.37 322.90Q646.12 320.39 642.09 320.39L642.09 320.39Q638.11 320.39 635.62 322.95Q633.14 325.50 633.14 330.09ZM691.95 360.75L691.95 360.75Q686.13 360.75 681.35 357.73Q676.57 354.70 673.76 348.73Q670.95 342.75 670.95 333.84L670.95 333.84Q670.95 324.66 673.88 318.70Q676.81 312.75 681.56 309.84Q686.32 306.94 691.81 306.94L691.81 306.94Q695.98 306.94 698.93 308.37Q701.88 309.80 703.78 312.02Q705.68 314.25 706.67 316.59L706.67 316.59L707.04 316.59L707.04 290.16L723.35 290.16L723.35 360L707.23 360L707.23 351.52L706.67 351.52Q705.12 355.08 701.53 357.91Q697.95 360.75 691.95 360.75ZM697.53 348L697.53 348Q702.17 348 704.79 344.13Q707.42 340.27 707.42 333.84L707.42 333.84Q707.42 327.33 704.81 323.53Q702.21 319.73 697.53 319.73L697.53 319.73Q692.79 319.73 690.28 323.60Q687.78 327.47 687.78 333.84L687.78 333.84Q687.78 340.22 690.28 344.11Q692.79 348 697.53 348ZM730.51 325.41L762.71 325.41L762.71 338.02L730.51 338.02L730.51 325.41ZM786.18 360L769.82 360L769.82 307.59L784.86 307.59L785.61 318Q787.77 312.09 791.87 309.49Q795.97 306.89 800.71 306.89L800.71 306.89Q805.68 306.89 808.98 309.75Q812.28 312.61 814.21 319.03L814.21 319.03Q816.60 312.56 821.26 309.73Q825.93 306.89 831.22 306.89L831.22 306.89Q838.58 306.89 843.29 311.63Q848.00 316.36 848.00 324.66L848.00 324.66L848.00 360L831.64 360L831.64 328.36Q831.64 324.38 829.58 322.31Q827.52 320.25 824.28 320.25L824.28 320.25Q820.82 320.25 818.80 322.52Q816.78 324.80 816.78 328.55L816.78 328.55L816.78 360L801.08 360L801.08 328.13Q801.08 324.52 799.04 322.38Q797.00 320.25 793.77 320.25L793.77 320.25Q790.44 320.25 788.31 322.50Q786.18 324.75 786.18 328.88L786.18 328.88L786.18 360ZM868.70 360.94L868.70 360.94Q861.16 360.94 856.30 357.09Q851.45 353.25 851.45 345.47L851.45 345.47Q851.45 339.66 854.13 336.23Q856.80 332.81 861.23 331.17Q865.66 329.53 870.95 329.06L870.95 329.06Q877.61 328.50 880.49 327.68Q883.38 326.86 883.38 324.42L883.38 324.42L883.38 324.23Q883.38 321.52 881.48 320.04Q879.58 318.56 876.25 318.56L876.25 318.56Q872.83 318.56 870.63 320.02Q868.42 321.47 867.77 323.95L867.77 323.95L852.95 322.03Q854.50 315.33 860.52 311.13Q866.55 306.94 876.39 306.94L876.39 306.94Q882.91 306.94 888.18 308.95Q893.45 310.97 896.57 314.88Q899.69 318.80 899.69 324.42L899.69 324.42L899.69 360L884.31 360L884.31 352.64L883.89 352.64Q879.53 360.94 868.70 360.94ZM873.67 350.11L873.67 350.11Q877.80 350.11 880.66 347.67Q883.52 345.23 883.52 341.34L883.52 341.34L883.52 336.33Q882.11 337.08 879.44 337.59Q876.77 338.11 874.47 338.48L874.47 338.48Q866.92 339.61 866.92 344.72L866.92 344.72Q866.92 347.34 868.82 348.73Q870.72 350.11 873.67 350.11ZM922.08 360L905.72 360L905.72 307.59L921.61 307.59L921.61 317.16L922.17 317.16Q923.58 312 926.83 309.47Q930.09 306.94 934.40 306.94L934.40 306.94Q936.79 306.94 939.04 307.50L939.04 307.50L939.04 321.75Q937.87 321.33 935.97 321.12Q934.08 320.91 932.58 320.91L932.58 320.91Q928.03 320.91 925.05 323.81Q922.08 326.72 922.08 331.41L922.08 331.41L922.08 360ZM957.59 360L941.23 360L941.23 290.16L957.59 290.16L957.59 326.53L958.34 326.53L973.34 307.59L991.95 307.59L973.24 330.47L992.70 360L973.81 360L961.06 339.98L957.59 344.11L957.59 360ZM1017.76 360.98L1017.76 360.98Q1005.43 360.98 998.37 353.79Q991.32 346.59 991.32 333.98L991.32 333.98Q991.32 325.92 994.48 319.83Q997.65 313.73 1003.46 310.34Q1009.27 306.94 1017.15 306.94L1017.15 306.94Q1024.51 306.94 1030.20 310.01Q1035.90 313.08 1039.15 319.05Q1042.41 325.03 1042.41 333.66L1042.41 333.66L1042.41 337.78L1007.40 337.78Q1007.63 343.45 1010.51 346.29Q1013.40 349.13 1018.04 349.13L1018.04 349.13Q1021.32 349.13 1023.71 347.74Q1026.10 346.36 1027.08 343.73L1027.08 343.73L1041.66 346.13Q1039.69 352.92 1033.48 356.95Q1027.27 360.98 1017.76 360.98ZM1007.49 328.27L1007.49 328.27L1026.90 328.27Q1026.43 323.81 1023.99 321.30Q1021.55 318.80 1017.29 318.80L1017.29 318.80Q1012.98 318.80 1010.47 321.35Q1007.96 323.91 1007.49 328.27ZM1062.55 360L1046.19 360L1046.19 307.59L1062.08 307.59L1062.08 317.16L1062.64 317.16Q1064.05 312 1067.31 309.47Q1070.57 306.94 1074.88 306.94L1074.88 306.94Q1077.27 306.94 1079.52 307.50L1079.52 307.50L1079.52 321.75Q1078.35 321.33 1076.45 321.12Q1074.55 320.91 1073.05 320.91L1073.05 320.91Q1068.50 320.91 1065.53 323.81Q1062.55 326.72 1062.55 331.41L1062.55 331.41L1062.55 360Z"/>
  <path fill="#60a5fa" d="M101.81 386.72L107.33 386.72L107.33 410L101.81 410L101.81 386.72ZM116.07 400.03L116.07 400.03L116.07 410L110.62 410L110.62 392.53L115.74 392.53L115.84 396.30Q116.52 394.48 117.85 393.40Q119.18 392.31 121.31 392.31L121.31 392.31Q124.04 392.31 125.70 394.11Q127.35 395.91 127.35 398.88L127.35 398.88L127.35 410L121.90 410L121.90 399.94Q121.90 398.47 121.15 397.63Q120.40 396.80 119.06 396.80L119.06 396.80Q117.73 396.80 116.90 397.65Q116.07 398.50 116.07 400.03ZM130.63 386.72L136.08 386.72L136.08 410L130.63 410L130.63 386.72ZM144.82 410L139.37 410L139.37 392.53L144.82 392.53L144.82 410ZM142.09 390.48L142.09 390.48Q140.93 390.48 140.10 389.72Q139.27 388.95 139.27 387.86L139.27 387.86Q139.27 386.77 140.10 386Q140.93 385.23 142.09 385.23L142.09 385.23Q143.26 385.23 144.09 386Q144.92 386.77 144.92 387.86L144.92 387.86Q144.92 388.95 144.09 389.72Q143.26 390.48 142.09 390.48ZM153.56 400.03L153.56 400.03L153.56 410L148.11 410L148.11 392.53L153.24 392.53L153.33 396.30Q154.02 394.48 155.35 393.40Q156.67 392.31 158.80 392.31L158.80 392.31Q161.53 392.31 163.19 394.11Q164.85 395.91 164.85 398.88L164.85 398.88L164.85 410L159.39 410L159.39 399.94Q159.39 398.47 158.64 397.63Q157.89 396.80 156.55 396.80L156.55 396.80Q155.22 396.80 154.39 397.65Q153.56 398.50 153.56 400.03ZM176.26 410.33L176.26 410.33Q172.15 410.33 169.80 407.93Q167.45 405.53 167.45 401.33L167.45 401.33Q167.45 398.64 168.50 396.61Q169.56 394.58 171.49 393.45Q173.43 392.31 176.06 392.31L176.06 392.31Q178.51 392.31 180.41 393.34Q182.31 394.36 183.39 396.35Q184.48 398.34 184.48 401.22L184.48 401.22L184.48 402.59L172.81 402.59Q172.88 404.48 173.85 405.43Q174.81 406.38 176.35 406.38L176.35 406.38Q177.45 406.38 178.24 405.91Q179.04 405.45 179.37 404.58L179.37 404.58L184.23 405.38Q183.57 407.64 181.50 408.98Q179.43 410.33 176.26 410.33ZM172.84 399.42L172.84 399.42L179.31 399.42Q179.15 397.94 178.34 397.10Q177.53 396.27 176.10 396.27L176.10 396.27Q174.67 396.27 173.83 397.12Q172.99 397.97 172.84 399.42ZM199.15 410L193.70 410L193.70 392.53L198.71 392.53L198.96 396Q199.68 394.03 201.05 393.16Q202.42 392.30 203.99 392.30L203.99 392.30Q205.65 392.30 206.75 393.25Q207.85 394.20 208.49 396.34L208.49 396.34Q209.29 394.19 210.85 393.24Q212.40 392.30 214.17 392.30L214.17 392.30Q216.62 392.30 218.19 393.88Q219.76 395.45 219.76 398.22L219.76 398.22L219.76 410L214.31 410L214.31 399.45Q214.31 398.13 213.62 397.44Q212.93 396.75 211.85 396.75L211.85 396.75Q210.70 396.75 210.03 397.51Q209.35 398.27 209.35 399.52L209.35 399.52L209.35 410L204.12 410L204.12 399.38Q204.12 398.17 203.44 397.46Q202.76 396.75 201.68 396.75L201.68 396.75Q200.57 396.75 199.86 397.50Q199.15 398.25 199.15 399.63L199.15 399.63L199.15 410ZM227.94 410.31L227.94 410.31Q225.42 410.31 223.81 409.03Q222.19 407.75 222.19 405.16L222.19 405.16Q222.19 403.22 223.08 402.08Q223.97 400.94 225.45 400.39Q226.92 399.84 228.69 399.69L228.69 399.69Q230.91 399.50 231.87 399.23Q232.83 398.95 232.83 398.14L232.83 398.14L232.83 398.08Q232.83 397.17 232.20 396.68Q231.57 396.19 230.46 396.19L230.46 396.19Q229.32 396.19 228.58 396.67Q227.85 397.16 227.63 397.98L227.63 397.98L222.69 397.34Q223.21 395.11 225.21 393.71Q227.22 392.31 230.50 392.31L230.50 392.31Q232.67 392.31 234.43 392.98Q236.19 393.66 237.23 394.96Q238.27 396.27 238.27 398.14L238.27 398.14L238.27 410L233.14 410L233.14 407.55L233.00 407.55Q231.55 410.31 227.94 410.31ZM229.60 406.70L229.60 406.70Q230.97 406.70 231.92 405.89Q232.88 405.08 232.88 403.78L232.88 403.78L232.88 402.11Q232.41 402.36 231.52 402.53Q230.63 402.70 229.86 402.83L229.86 402.83Q227.35 403.20 227.35 404.91L227.35 404.91Q227.35 405.78 227.98 406.24Q228.61 406.70 229.60 406.70ZM247.01 410L241.56 410L241.56 392.53L246.85 392.53L246.85 395.72L247.04 395.72Q247.51 394 248.60 393.16Q249.68 392.31 251.12 392.31L251.12 392.31Q251.92 392.31 252.67 392.50L252.67 392.50L252.67 397.25Q252.28 397.11 251.64 397.04Q251.01 396.97 250.51 396.97L250.51 396.97Q249.00 396.97 248.00 397.94Q247.01 398.91 247.01 400.47L247.01 400.47L247.01 410ZM260.13 410L254.68 410L254.68 386.72L260.13 386.72L260.13 398.84L260.38 398.84L265.38 392.53L271.58 392.53L265.35 400.16L271.83 410L265.53 410L261.28 403.33L260.13 404.70L260.13 410ZM281.46 410.33L281.46 410.33Q277.36 410.33 275.00 407.93Q272.65 405.53 272.65 401.33L272.65 401.33Q272.65 398.64 273.71 396.61Q274.76 394.58 276.70 393.45Q278.64 392.31 281.26 392.31L281.26 392.31Q283.71 392.31 285.61 393.34Q287.51 394.36 288.60 396.35Q289.68 398.34 289.68 401.22L289.68 401.22L289.68 402.59L278.01 402.59Q278.09 404.48 279.05 405.43Q280.01 406.38 281.56 406.38L281.56 406.38Q282.65 406.38 283.45 405.91Q284.25 405.45 284.57 404.58L284.57 404.58L289.43 405.38Q288.78 407.64 286.71 408.98Q284.64 410.33 281.46 410.33ZM278.04 399.42L278.04 399.42L284.51 399.42Q284.36 397.94 283.54 397.10Q282.73 396.27 281.31 396.27L281.31 396.27Q279.87 396.27 279.03 397.12Q278.20 397.97 278.04 399.42ZM297.68 410L292.22 410L292.22 392.53L297.52 392.53L297.52 395.72L297.71 395.72Q298.18 394 299.26 393.16Q300.35 392.31 301.79 392.31L301.79 392.31Q302.58 392.31 303.33 392.50L303.33 392.50L303.33 397.25Q302.94 397.11 302.31 397.04Q301.68 396.97 301.18 396.97L301.18 396.97Q299.66 396.97 298.67 397.94Q297.68 398.91 297.68 400.47L297.68 400.47L297.68 410ZM312.70 410.33L312.70 410.33Q309.34 410.33 307.18 408.91Q305.01 407.50 304.56 405L304.56 405L309.62 404.20Q309.95 405.34 310.73 405.92Q311.51 406.50 312.90 406.50L312.90 406.50Q314.04 406.50 314.70 406.10Q315.36 405.70 315.36 405.05L315.36 405.05Q315.36 403.91 313.22 403.48L313.22 403.48L310.17 402.89Q305.00 401.91 305.00 397.86L305.00 397.86Q305.00 395.25 307.08 393.78Q309.17 392.31 312.68 392.31L312.68 392.31Q315.97 392.31 317.95 393.61Q319.93 394.91 320.39 397.16L320.39 397.16L315.57 397.92Q315.04 396.06 312.78 396.06L312.78 396.06Q311.79 396.06 311.11 396.46Q310.43 396.86 310.43 397.53L310.43 397.53Q310.43 398.06 310.86 398.46Q311.28 398.86 312.40 399.08L312.40 399.08L315.75 399.70Q320.89 400.67 320.89 404.42L320.89 404.42Q320.89 406.22 319.83 407.55Q318.78 408.88 316.93 409.60Q315.09 410.33 312.70 410.33ZM334.93 410.31L334.93 410.31Q332.42 410.31 330.80 409.03Q329.18 407.75 329.18 405.16L329.18 405.16Q329.18 403.22 330.08 402.08Q330.97 400.94 332.44 400.39Q333.92 399.84 335.68 399.69L335.68 399.69Q337.90 399.50 338.86 399.23Q339.83 398.95 339.83 398.14L339.83 398.14L339.83 398.08Q339.83 397.17 339.19 396.68Q338.56 396.19 337.45 396.19L337.45 396.19Q336.31 396.19 335.58 396.67Q334.84 397.16 334.62 397.98L334.62 397.98L329.68 397.34Q330.20 395.11 332.21 393.71Q334.22 392.31 337.50 392.31L337.50 392.31Q339.67 392.31 341.43 392.98Q343.18 393.66 344.22 394.96Q345.26 396.27 345.26 398.14L345.26 398.14L345.26 410L340.14 410L340.14 407.55L340.00 407.55Q338.54 410.31 334.93 410.31ZM336.59 406.70L336.59 406.70Q337.97 406.70 338.92 405.89Q339.87 405.08 339.87 403.78L339.87 403.78L339.87 402.11Q339.40 402.36 338.51 402.53Q337.62 402.70 336.86 402.83L336.86 402.83Q334.34 403.20 334.34 404.91L334.34 404.91Q334.34 405.78 334.97 406.24Q335.61 406.70 336.59 406.70ZM354.83 392.53L357.97 392.53L357.97 396.58L354.83 396.58L354.83 404.66Q354.83 406.02 356.22 406.02L356.22 406.02Q356.51 406.02 357.01 405.95Q357.52 405.88 357.74 405.83L357.74 405.83L358.44 409.80Q357.52 410.06 356.66 410.16Q355.80 410.25 355.04 410.25L355.04 410.25Q352.26 410.25 350.82 408.95Q349.38 407.64 349.38 405.14L349.38 405.14L349.38 396.58L347.07 396.58L347.07 392.53L349.38 392.53L349.38 388.38L354.83 388.38L354.83 392.53ZM372.58 410L367.13 410L367.13 392.53L372.58 392.53L372.58 410ZM369.85 390.48L369.85 390.48Q368.69 390.48 367.87 389.72Q367.04 388.95 367.04 387.86L367.04 387.86Q367.04 386.77 367.87 386Q368.69 385.23 369.85 385.23L369.85 385.23Q371.02 385.23 371.85 386Q372.68 386.77 372.68 387.86L372.68 387.86Q372.68 388.95 371.85 389.72Q371.02 390.48 369.85 390.48ZM382.75 392.53L386.25 392.53L386.25 396.58L382.75 396.58L382.75 410L377.33 410L377.33 396.58L374.39 396.58L374.39 392.53L377.33 392.53L377.33 391.59Q377.33 388.59 378.98 387.11Q380.64 385.63 383.26 385.63L383.26 385.63Q384.42 385.63 385.44 385.80Q386.45 385.98 386.94 386.13L386.94 386.13L386.06 390.11Q385.75 390.03 385.33 389.96Q384.90 389.89 384.48 389.89L384.48 389.89Q383.51 389.89 383.13 390.34Q382.75 390.78 382.75 391.55L382.75 391.55L382.75 392.53ZM389.04 398.47L399.77 398.47L399.77 402.67L389.04 402.67L389.04 398.47ZM410.78 410.33L410.78 410.33Q407.42 410.33 405.26 408.91Q403.09 407.50 402.64 405L402.64 405L407.70 404.20Q408.03 405.34 408.81 405.92Q409.59 406.50 410.98 406.50L410.98 406.50Q412.12 406.50 412.78 406.10Q413.44 405.70 413.44 405.05L413.44 405.05Q413.44 403.91 411.30 403.48L411.30 403.48L408.25 402.89Q403.08 401.91 403.08 397.86L403.08 397.86Q403.08 395.25 405.16 393.78Q407.25 392.31 410.76 392.31L410.76 392.31Q414.05 392.31 416.03 393.61Q418.01 394.91 418.47 397.16L418.47 397.16L413.66 397.92Q413.12 396.06 410.86 396.06L410.86 396.06Q409.87 396.06 409.19 396.46Q408.51 396.86 408.51 397.53L408.51 397.53Q408.51 398.06 408.94 398.46Q409.36 398.86 410.48 399.08L410.48 399.08L413.83 399.70Q418.97 400.67 418.97 404.42L418.97 404.42Q418.97 406.22 417.91 407.55Q416.86 408.88 415.01 409.60Q413.17 410.33 410.78 410.33ZM427.73 392.53L430.87 392.53L430.87 396.58L427.73 396.58L427.73 404.66Q427.73 406.02 429.12 406.02L429.12 406.02Q429.40 406.02 429.91 405.95Q430.41 405.88 430.63 405.83L430.63 405.83L431.34 409.80Q430.41 410.06 429.55 410.16Q428.69 410.25 427.93 410.25L427.93 410.25Q425.15 410.25 423.71 408.95Q422.27 407.64 422.27 405.14L422.27 405.14L422.27 396.58L419.96 396.58L419.96 392.53L422.27 392.53L422.27 388.38L427.73 388.38L427.73 392.53ZM438.23 410.31L438.23 410.31Q435.72 410.31 434.10 409.03Q432.48 407.75 432.48 405.16L432.48 405.16Q432.48 403.22 433.37 402.08Q434.27 400.94 435.74 400.39Q437.22 399.84 438.98 399.69L438.98 399.69Q441.20 399.50 442.16 399.23Q443.12 398.95 443.12 398.14L443.12 398.14L443.12 398.08Q443.12 397.17 442.49 396.68Q441.86 396.19 440.75 396.19L440.75 396.19Q439.61 396.19 438.87 396.67Q438.14 397.16 437.92 397.98L437.92 397.98L432.98 397.34Q433.50 395.11 435.51 393.71Q437.52 392.31 440.80 392.31L440.80 392.31Q442.97 392.31 444.73 392.98Q446.48 393.66 447.52 394.96Q448.56 396.27 448.56 398.14L448.56 398.14L448.56 410L443.44 410L443.44 407.55L443.30 407.55Q441.84 410.31 438.23 410.31ZM439.89 406.70L439.89 406.70Q441.27 406.70 442.22 405.89Q443.17 405.08 443.17 403.78L443.17 403.78L443.17 402.11Q442.70 402.36 441.81 402.53Q440.92 402.70 440.16 402.83L440.16 402.83Q437.64 403.20 437.64 404.91L437.64 404.91Q437.64 405.78 438.27 406.24Q438.91 406.70 439.89 406.70ZM458.13 392.53L461.27 392.53L461.27 396.58L458.13 396.58L458.13 404.66Q458.13 406.02 459.52 406.02L459.52 406.02Q459.80 406.02 460.31 405.95Q460.82 405.88 461.04 405.83L461.04 405.83L461.74 409.80Q460.82 410.06 459.96 410.16Q459.10 410.25 458.34 410.25L458.34 410.25Q455.55 410.25 454.12 408.95Q452.68 407.64 452.68 405.14L452.68 405.14L452.68 396.58L450.37 396.58L450.37 392.53L452.68 392.53L452.68 388.38L458.13 388.38L458.13 392.53ZM471.89 410.33L471.89 410.33Q467.78 410.33 465.43 407.93Q463.08 405.53 463.08 401.33L463.08 401.33Q463.08 398.64 464.13 396.61Q465.19 394.58 467.13 393.45Q469.06 392.31 471.69 392.31L471.69 392.31Q474.14 392.31 476.04 393.34Q477.94 394.36 479.02 396.35Q480.11 398.34 480.11 401.22L480.11 401.22L480.11 402.59L468.44 402.59Q468.52 404.48 469.48 405.43Q470.44 406.38 471.98 406.38L471.98 406.38Q473.08 406.38 473.88 405.91Q474.67 405.45 475.00 404.58L475.00 404.58L479.86 405.38Q479.20 407.64 477.13 408.98Q475.06 410.33 471.89 410.33ZM468.47 399.42L468.47 399.42L474.94 399.42Q474.78 397.94 473.97 397.10Q473.16 396.27 471.73 396.27L471.73 396.27Q470.30 396.27 469.46 397.12Q468.63 397.97 468.47 399.42ZM488.10 410L482.65 410L482.65 392.53L487.66 392.53L487.91 396Q488.63 394.03 490.00 393.16Q491.37 392.30 492.95 392.30L492.95 392.30Q494.60 392.30 495.70 393.25Q496.81 394.20 497.45 396.34L497.45 396.34Q498.24 394.19 499.80 393.24Q501.35 392.30 503.12 392.30L503.12 392.30Q505.57 392.30 507.14 393.88Q508.71 395.45 508.71 398.22L508.71 398.22L508.71 410L503.26 410L503.26 399.45Q503.26 398.13 502.57 397.44Q501.88 396.75 500.81 396.75L500.81 396.75Q499.65 396.75 498.98 397.51Q498.31 398.27 498.31 399.52L498.31 399.52L498.31 410L493.07 410L493.07 399.38Q493.07 398.17 492.39 397.46Q491.71 396.75 490.63 396.75L490.63 396.75Q489.52 396.75 488.81 397.50Q488.10 398.25 488.10 399.63L488.10 399.63L488.10 410ZM520.14 410.33L520.14 410.33Q516.03 410.33 513.68 407.93Q511.33 405.53 511.33 401.33L511.33 401.33Q511.33 398.64 512.38 396.61Q513.44 394.58 515.38 393.45Q517.31 392.31 519.94 392.31L519.94 392.31Q522.39 392.31 524.29 393.34Q526.19 394.36 527.27 396.35Q528.36 398.34 528.36 401.22L528.36 401.22L528.36 402.59L516.69 402.59Q516.77 404.48 517.73 405.43Q518.69 406.38 520.24 406.38L520.24 406.38Q521.33 406.38 522.13 405.91Q522.92 405.45 523.25 404.58L523.25 404.58L528.11 405.38Q527.45 407.64 525.38 408.98Q523.31 410.33 520.14 410.33ZM516.72 399.42L516.72 399.42L523.19 399.42Q523.03 397.94 522.22 397.10Q521.41 396.27 519.99 396.27L519.99 396.27Q518.55 396.27 517.71 397.12Q516.88 397.97 516.72 399.42ZM536.35 400.03L536.35 400.03L536.35 410L530.90 410L530.90 392.53L536.02 392.53L536.12 396.30Q536.81 394.48 538.13 393.40Q539.46 392.31 541.59 392.31L541.59 392.31Q544.32 392.31 545.98 394.11Q547.63 395.91 547.63 398.88L547.63 398.88L547.63 410L542.18 410L542.18 399.94Q542.18 398.47 541.43 397.63Q540.68 396.80 539.34 396.80L539.34 396.80Q538.01 396.80 537.18 397.65Q536.35 398.50 536.35 400.03ZM557.19 392.53L560.33 392.53L560.33 396.58L557.19 396.58L557.19 404.66Q557.19 406.02 558.58 406.02L558.58 406.02Q558.86 406.02 559.37 405.95Q559.88 405.88 560.10 405.83L560.10 405.83L560.80 409.80Q559.88 410.06 559.02 410.16Q558.16 410.25 557.39 410.25L557.39 410.25Q554.61 410.25 553.17 408.95Q551.74 407.64 551.74 405.14L551.74 405.14L551.74 396.58L549.42 396.58L549.42 392.53L551.74 392.53L551.74 388.38L557.19 388.38L557.19 392.53ZM577.60 410.33L577.60 410.33Q574.86 410.33 572.89 409.20Q570.92 408.06 569.87 406.04Q568.81 404.02 568.81 401.33L568.81 401.33Q568.81 398.64 569.87 396.61Q570.92 394.58 572.89 393.45Q574.86 392.31 577.60 392.31L577.60 392.31Q580.94 392.31 583.09 393.98Q585.24 395.66 585.64 398.52L585.64 398.52L580.61 399.36Q580.35 397.98 579.60 397.23Q578.86 396.48 577.66 396.48L577.66 396.48Q576.10 396.48 575.24 397.76Q574.38 399.03 574.38 401.30L574.38 401.30Q574.38 403.55 575.24 404.85Q576.10 406.16 577.66 406.16L577.66 406.16Q578.86 406.16 579.62 405.38Q580.38 404.59 580.63 403.19L580.63 403.19L585.66 404Q585.25 406.94 583.11 408.63Q580.97 410.33 577.60 410.33ZM588.21 386.72L593.67 386.72L593.67 410L588.21 410L588.21 386.72ZM605.06 410.33L605.06 410.33Q602.33 410.33 600.36 409.20Q598.39 408.06 597.34 406.04Q596.28 404.02 596.28 401.33L596.28 401.33Q596.28 398.64 597.34 396.61Q598.39 394.58 600.36 393.45Q602.33 392.31 605.06 392.31L605.06 392.31Q607.80 392.31 609.76 393.45Q611.72 394.58 612.78 396.61Q613.83 398.64 613.83 401.33L613.83 401.33Q613.83 404.02 612.78 406.04Q611.72 408.06 609.76 409.20Q607.80 410.33 605.06 410.33ZM605.06 406.16L605.06 406.16Q606.63 406.16 607.46 404.82Q608.28 403.48 608.28 401.30L608.28 401.30Q608.28 399.11 607.46 397.80Q606.63 396.48 605.06 396.48L605.06 396.48Q603.50 396.48 602.67 397.80Q601.85 399.11 601.85 401.30L601.85 401.30Q601.85 403.48 602.67 404.82Q603.50 406.16 605.06 406.16ZM623.81 410.33L623.81 410.33Q620.45 410.33 618.28 408.91Q616.12 407.50 615.67 405L615.67 405L620.73 404.20Q621.06 405.34 621.84 405.92Q622.62 406.50 624.01 406.50L624.01 406.50Q625.15 406.50 625.81 406.10Q626.46 405.70 626.46 405.05L626.46 405.05Q626.46 403.91 624.32 403.48L624.32 403.48L621.28 402.89Q616.10 401.91 616.10 397.86L616.10 397.86Q616.10 395.25 618.19 393.78Q620.28 392.31 623.79 392.31L623.79 392.31Q627.07 392.31 629.06 393.61Q631.04 394.91 631.49 397.16L631.49 397.16L626.68 397.92Q626.15 396.06 623.89 396.06L623.89 396.06Q622.90 396.06 622.22 396.46Q621.54 396.86 621.54 397.53L621.54 397.53Q621.54 398.06 621.96 398.46Q622.39 398.86 623.51 399.08L623.51 399.08L626.85 399.70Q631.99 400.67 631.99 404.42L631.99 404.42Q631.99 406.22 630.94 407.55Q629.89 408.88 628.04 409.60Q626.20 410.33 623.81 410.33ZM639.92 410L634.47 410L634.47 392.53L639.92 392.53L639.92 410ZM637.19 390.48L637.19 390.48Q636.03 390.48 635.21 389.72Q634.38 388.95 634.38 387.86L634.38 387.86Q634.38 386.77 635.21 386Q636.03 385.23 637.19 385.23L637.19 385.23Q638.36 385.23 639.19 386Q640.02 386.77 640.02 387.86L640.02 387.86Q640.02 388.95 639.19 389.72Q638.36 390.48 637.19 390.48ZM648.67 400.03L648.67 400.03L648.67 410L643.21 410L643.21 392.53L648.34 392.53L648.43 396.30Q649.12 394.48 650.45 393.40Q651.78 392.31 653.90 392.31L653.90 392.31Q656.64 392.31 658.29 394.11Q659.95 395.91 659.95 398.88L659.95 398.88L659.95 410L654.50 410L654.50 399.94Q654.50 398.47 653.75 397.63Q653.00 396.80 651.65 396.80L651.65 396.80Q650.32 396.80 649.50 397.65Q648.67 398.50 648.67 400.03ZM671.27 416.91L671.27 416.91Q667.85 416.91 665.74 415.64Q663.63 414.38 663.16 412.33L663.16 412.33L667.89 411.36Q668.13 412.06 668.95 412.59Q669.77 413.11 671.24 413.11L671.24 413.11Q672.91 413.11 673.81 412.36Q674.71 411.61 674.71 410.05L674.71 410.05L674.71 406.95L674.28 406.95Q673.80 408.14 672.65 408.95Q671.50 409.77 669.55 409.77L669.55 409.77Q667.63 409.77 666.04 408.87Q664.46 407.97 663.50 406.09Q662.55 404.20 662.55 401.27L662.55 401.27Q662.55 398.20 663.53 396.22Q664.50 394.23 666.10 393.27Q667.69 392.31 669.53 392.31L669.53 392.31Q671.61 392.31 672.82 393.33Q674.03 394.34 674.53 395.53L674.53 395.53L674.69 395.53L674.69 392.53L680.08 392.53L680.08 409.61Q680.08 412.02 678.96 413.64Q677.85 415.27 675.86 416.09Q673.88 416.91 671.27 416.91ZM671.41 405.77L671.41 405.77Q672.97 405.77 673.84 404.57Q674.71 403.38 674.71 401.25L674.71 401.25Q674.71 399.09 673.85 397.84Q672.99 396.58 671.41 396.58L671.41 396.58Q669.83 396.58 669.00 397.86Q668.16 399.14 668.16 401.25L668.16 401.25Q668.16 403.36 669.00 404.56Q669.85 405.77 671.41 405.77ZM700.52 410.25L700.52 410.25Q698.52 410.25 697.32 409.30Q696.13 408.36 695.61 407.17L695.61 407.17L695.43 407.17L695.43 410L690.04 410L690.04 386.72L695.49 386.72L695.49 395.53L695.61 395.53Q695.94 394.75 696.57 394.01Q697.19 393.27 698.18 392.79Q699.16 392.31 700.55 392.31L700.55 392.31Q702.39 392.31 703.98 393.28Q705.57 394.25 706.54 396.23Q707.52 398.22 707.52 401.28L707.52 401.28Q707.52 404.25 706.57 406.24Q705.63 408.23 704.04 409.24Q702.46 410.25 700.52 410.25ZM698.66 406L698.66 406Q700.24 406 701.07 404.70Q701.91 403.41 701.91 401.28L701.91 401.28Q701.91 399.16 701.07 397.87Q700.24 396.58 698.66 396.58L698.66 396.58Q697.10 396.58 696.23 397.84Q695.36 399.11 695.36 401.28L695.36 401.28Q695.36 403.42 696.23 404.71Q697.10 406 698.66 406ZM715.57 410L710.12 410L710.12 392.53L715.42 392.53L715.42 395.72L715.61 395.72Q716.07 394 717.16 393.16Q718.25 392.31 719.68 392.31L719.68 392.31Q720.48 392.31 721.23 392.50L721.23 392.50L721.23 397.25Q720.84 397.11 720.21 397.04Q719.57 396.97 719.07 396.97L719.07 396.97Q717.56 396.97 716.57 397.94Q715.57 398.91 715.57 400.47L715.57 400.47L715.57 410ZM728.13 410.31L728.13 410.31Q725.61 410.31 724.00 409.03Q722.38 407.75 722.38 405.16L722.38 405.16Q722.38 403.22 723.27 402.08Q724.16 400.94 725.64 400.39Q727.11 399.84 728.88 399.69L728.88 399.69Q731.10 399.50 732.06 399.23Q733.02 398.95 733.02 398.14L733.02 398.14L733.02 398.08Q733.02 397.17 732.39 396.68Q731.75 396.19 730.65 396.19L730.65 396.19Q729.50 396.19 728.77 396.67Q728.04 397.16 727.82 397.98L727.82 397.98L722.88 397.34Q723.40 395.11 725.40 393.71Q727.41 392.31 730.69 392.31L730.69 392.31Q732.86 392.31 734.62 392.98Q736.38 393.66 737.42 394.96Q738.46 396.27 738.46 398.14L738.46 398.14L738.46 410L733.33 410L733.33 407.55L733.19 407.55Q731.74 410.31 728.13 410.31ZM729.79 406.70L729.79 406.70Q731.16 406.70 732.11 405.89Q733.07 405.08 733.07 403.78L733.07 403.78L733.07 402.11Q732.60 402.36 731.71 402.53Q730.82 402.70 730.05 402.83L730.05 402.83Q727.54 403.20 727.54 404.91L727.54 404.91Q727.54 405.78 728.17 406.24Q728.80 406.70 729.79 406.70ZM749.86 410.33L749.86 410.33Q747.12 410.33 745.15 409.20Q743.18 408.06 742.13 406.04Q741.08 404.02 741.08 401.33L741.08 401.33Q741.08 398.64 742.13 396.61Q743.18 394.58 745.15 393.45Q747.12 392.31 749.86 392.31L749.86 392.31Q753.20 392.31 755.35 393.98Q757.50 395.66 757.90 398.52L757.90 398.52L752.87 399.36Q752.61 397.98 751.86 397.23Q751.12 396.48 749.92 396.48L749.92 396.48Q748.36 396.48 747.50 397.76Q746.64 399.03 746.64 401.30L746.64 401.30Q746.64 403.55 747.50 404.85Q748.36 406.16 749.92 406.16L749.92 406.16Q751.12 406.16 751.88 405.38Q752.64 404.59 752.89 403.19L752.89 403.19L757.92 404Q757.51 406.94 755.37 408.63Q753.23 410.33 749.86 410.33ZM768.61 410.33L768.61 410.33Q764.51 410.33 762.15 407.93Q759.80 405.53 759.80 401.33L759.80 401.33Q759.80 398.64 760.86 396.61Q761.91 394.58 763.85 393.45Q765.79 392.31 768.41 392.31L768.41 392.31Q770.86 392.31 772.76 393.34Q774.66 394.36 775.75 396.35Q776.83 398.34 776.83 401.22L776.83 401.22L776.83 402.59L765.16 402.59Q765.24 404.48 766.20 405.43Q767.16 406.38 768.71 406.38L768.71 406.38Q769.80 406.38 770.60 405.91Q771.40 405.45 771.72 404.58L771.72 404.58L776.58 405.38Q775.93 407.64 773.86 408.98Q771.79 410.33 768.61 410.33ZM765.19 399.42L765.19 399.42L771.66 399.42Q771.51 397.94 770.69 397.10Q769.88 396.27 768.46 396.27L768.46 396.27Q767.02 396.27 766.19 397.12Q765.35 397.97 765.19 399.42ZM786.73 410.33L786.73 410.33Q783.37 410.33 781.21 408.91Q779.04 407.50 778.59 405L778.59 405L783.65 404.20Q783.98 405.34 784.76 405.92Q785.54 406.50 786.94 406.50L786.94 406.50Q788.08 406.50 788.73 406.10Q789.39 405.70 789.39 405.05L789.39 405.05Q789.39 403.91 787.25 403.48L787.25 403.48L784.20 402.89Q779.03 401.91 779.03 397.86L779.03 397.86Q779.03 395.25 781.12 393.78Q783.20 392.31 786.72 392.31L786.72 392.31Q790.00 392.31 791.98 393.61Q793.97 394.91 794.42 397.16L794.42 397.16L789.61 397.92Q789.08 396.06 786.81 396.06L786.81 396.06Q785.83 396.06 785.15 396.46Q784.47 396.86 784.47 397.53L784.47 397.53Q784.47 398.06 784.89 398.46Q785.31 398.86 786.44 399.08L786.44 399.08L789.78 399.70Q794.92 400.67 794.92 404.42L794.92 404.42Q794.92 406.22 793.87 407.55Q792.81 408.88 790.97 409.60Q789.12 410.33 786.73 410.33Z"/>

  <!-- Terminal-style install line -->
  <g>
    <rect x="100" y="480" width="617.9999999999998" height="48" rx="10" fill="#1a0b1f" stroke="#3b82f6" stroke-opacity="0.35" stroke-width="1"/>
    <path fill="#3b82f6" d="M117.28 513.08L115.92 513.08L115.92 510.18Q113.76 510 112.52 508.81Q111.28 507.62 111.25 505.69L111.25 505.69L114.00 505.69Q114.00 506.50 114.51 507.04Q115.02 507.58 115.92 507.76L115.92 507.76L115.92 503.09L115.52 502.98Q113.63 502.50 112.61 501.24Q111.58 499.99 111.58 498.21L111.58 498.21Q111.58 496.34 112.75 495.14Q113.92 493.94 115.92 493.76L115.92 493.76L115.92 490.86L117.28 490.86L117.28 493.74Q119.33 493.92 120.50 495.10Q121.68 496.27 121.70 498.14L121.70 498.14L118.95 498.14Q118.95 496.51 117.28 496.18L117.28 496.18L117.28 500.63L118.01 500.83Q119.92 501.31 120.93 502.55Q121.95 503.80 121.95 505.62L121.95 505.62Q121.95 507.54 120.68 508.78Q119.42 510.02 117.28 510.20L117.28 510.20L117.28 513.08ZM114.33 498.05L114.33 498.05Q114.33 498.82 114.74 499.40Q115.15 499.97 115.92 500.23L115.92 500.23L115.92 496.18Q114.33 496.49 114.33 498.05ZM117.28 503.53L117.28 507.78Q118.18 507.65 118.69 507.11Q119.20 506.57 119.20 505.73L119.20 505.73Q119.20 504.92 118.69 504.32Q118.18 503.73 117.28 503.53L117.28 503.53Z"/>
    <path fill="#fafafa" d="M144.62 510.22L144.62 510.22Q143.08 510.22 141.94 509.63Q140.79 509.03 140.17 507.94Q139.54 506.85 139.54 505.38L139.54 505.38L139.54 502.52Q139.54 501.05 140.17 499.96Q140.79 498.87 141.94 498.27Q143.08 497.68 144.62 497.68L144.62 497.68Q146.14 497.68 147.27 498.27Q148.41 498.87 149.03 499.94Q149.66 501.00 149.66 502.43L149.66 502.43L149.66 504.63L142.18 504.63L142.18 505.47Q142.18 506.70 142.82 507.33Q143.46 507.95 144.62 507.95L144.62 507.95Q145.48 507.95 146.09 507.66Q146.69 507.36 146.80 506.79L146.80 506.79L149.53 506.79Q149.24 508.35 147.90 509.29Q146.56 510.22 144.62 510.22ZM142.18 502.43L142.18 502.43L142.18 502.85L147.02 502.83L147.02 502.41Q147.02 501.16 146.40 500.47Q145.79 499.79 144.62 499.79L144.62 499.79Q143.41 499.79 142.80 500.49Q142.18 501.18 142.18 502.43ZM155.12 510L151.99 510L156.22 503.75L152.28 497.90L155.38 497.90L157.25 500.87Q157.43 501.13 157.58 501.46Q157.73 501.79 157.80 501.99L157.80 501.99Q157.89 501.79 158.03 501.46Q158.17 501.13 158.35 500.87L158.35 500.87L160.22 497.90L163.34 497.90L159.41 503.75L163.61 510L160.48 510L158.39 506.68Q158.22 506.41 158.05 506.07Q157.89 505.73 157.80 505.53L157.80 505.53Q157.71 505.73 157.56 506.07Q157.40 506.41 157.23 506.68L157.23 506.68L155.12 510ZM175.99 510L172.21 510Q170.52 510 169.51 509.02Q168.51 508.04 168.51 506.37L168.51 506.37L168.51 500.39L165.17 500.39L165.17 497.90L168.51 497.90L168.51 494.49L171.29 494.49L171.29 497.90L176.10 497.90L176.10 500.39L171.29 500.39L171.29 506.30Q171.29 506.83 171.58 507.17Q171.88 507.51 172.41 507.51L172.41 507.51L175.99 507.51L175.99 510ZM203.08 510L192.47 510L192.47 507.51L196.61 507.51L196.61 500.39L192.91 500.39L192.91 497.90L199.36 497.90L199.36 507.51L203.08 507.51L203.08 510ZM197.80 495.88L197.80 495.88Q196.96 495.88 196.48 495.45Q195.99 495.02 195.99 494.29L195.99 494.29Q195.99 493.57 196.48 493.14Q196.96 492.71 197.80 492.71L197.80 492.71Q198.63 492.71 199.12 493.14Q199.60 493.57 199.60 494.29L199.60 494.29Q199.60 495.02 199.12 495.45Q198.63 495.88 197.80 495.88ZM208.44 510L205.69 510L205.69 497.90L208.38 497.90L208.38 500.17Q208.60 499.02 209.46 498.35Q210.31 497.68 211.63 497.68L211.63 497.68Q213.42 497.68 214.48 498.87Q215.55 500.06 215.55 502.06L215.55 502.06L215.55 510L212.80 510L212.80 502.39Q212.80 501.27 212.22 500.66Q211.63 500.06 210.64 500.06L210.64 500.06Q209.61 500.06 209.03 500.67Q208.44 501.29 208.44 502.43L208.44 502.43L208.44 510ZM224.26 510.20L223.29 510.20Q221.14 510.20 219.88 509.22Q218.63 508.24 218.63 506.57L218.63 506.57L221.34 506.57Q221.34 507.27 221.85 507.65Q222.37 508.02 223.29 508.02L223.29 508.02L224.26 508.02Q225.25 508.02 225.79 507.65Q226.33 507.27 226.33 506.57L226.33 506.57Q226.33 505.91 225.96 505.59Q225.58 505.27 224.81 505.16L224.81 505.16L221.80 504.76Q220.35 504.57 219.56 503.64Q218.78 502.72 218.78 501.24L218.78 501.24Q218.78 499.53 219.93 498.62Q221.07 497.70 223.23 497.70L223.23 497.70L224.24 497.70Q226.26 497.70 227.50 498.63Q228.73 499.55 228.77 501.09L228.77 501.09L226.04 501.09Q226.02 500.52 225.54 500.18Q225.05 499.84 224.24 499.84L224.24 499.84L223.23 499.84Q222.35 499.84 221.89 500.20Q221.42 500.56 221.42 501.18L221.42 501.18Q221.42 501.73 221.76 501.99Q222.11 502.26 222.77 502.32L222.77 502.32L225.60 502.72Q227.28 502.92 228.12 503.89Q228.97 504.87 228.97 506.52L228.97 506.52Q228.97 508.28 227.77 509.24Q226.57 510.20 224.26 510.20L224.26 510.20ZM241.99 510L238.21 510Q236.52 510 235.51 509.02Q234.51 508.04 234.51 506.37L234.51 506.37L234.51 500.39L231.17 500.39L231.17 497.90L234.51 497.90L234.51 494.49L237.29 494.49L237.29 497.90L242.10 497.90L242.10 500.39L237.29 500.39L237.29 506.30Q237.29 506.83 237.58 507.17Q237.88 507.51 238.41 507.51L238.41 507.51L241.99 507.51L241.99 510ZM248.86 510.22L248.86 510.22Q247.01 510.22 245.94 509.18Q244.88 508.13 244.88 506.44L244.88 506.44Q244.88 504.68 246.09 503.63Q247.30 502.59 249.41 502.59L249.41 502.59L252.36 502.59L252.36 501.73Q252.36 499.90 250.22 499.90L250.22 499.90Q249.25 499.90 248.68 500.28Q248.11 500.65 248.04 501.33L248.04 501.33L245.40 501.33Q245.49 499.70 246.78 498.69Q248.07 497.68 250.24 497.68L250.24 497.68Q252.55 497.68 253.83 498.76Q255.11 499.84 255.11 501.79L255.11 501.79L255.11 510L252.42 510L252.42 507.73Q252.27 508.90 251.32 509.56Q250.38 510.22 248.86 510.22ZM249.74 507.98L249.74 507.98Q250.95 507.98 251.65 507.38Q252.36 506.79 252.36 505.80L252.36 505.80L252.36 504.37L249.54 504.37Q248.64 504.37 248.11 504.87Q247.58 505.38 247.58 506.17L247.58 506.17Q247.58 506.99 248.14 507.48Q248.70 507.98 249.74 507.98ZM269.10 510L265.36 510Q263.55 510 262.46 508.92Q261.38 507.84 261.38 506.08L261.38 506.08L261.38 496.43L257.39 496.43L257.39 493.94L264.13 493.94L264.13 506.02Q264.13 506.70 264.51 507.11Q264.90 507.51 265.56 507.51L265.56 507.51L269.10 507.51L269.10 510ZM282.30 510L278.56 510Q276.75 510 275.66 508.92Q274.58 507.84 274.58 506.08L274.58 506.08L274.58 496.43L270.59 496.43L270.59 493.94L277.33 493.94L277.33 506.02Q277.33 506.70 277.71 507.11Q278.10 507.51 278.76 507.51L278.76 507.51L282.30 507.51L282.30 510ZM303.46 510.20L302.49 510.20Q300.34 510.20 299.08 509.22Q297.83 508.24 297.83 506.57L297.83 506.57L300.54 506.57Q300.54 507.27 301.05 507.65Q301.57 508.02 302.49 508.02L302.49 508.02L303.46 508.02Q304.45 508.02 304.99 507.65Q305.53 507.27 305.53 506.57L305.53 506.57Q305.53 505.91 305.16 505.59Q304.78 505.27 304.01 505.16L304.01 505.16L301.00 504.76Q299.55 504.57 298.76 503.64Q297.98 502.72 297.98 501.24L297.98 501.24Q297.98 499.53 299.13 498.62Q300.27 497.70 302.43 497.70L302.43 497.70L303.44 497.70Q305.46 497.70 306.70 498.63Q307.93 499.55 307.97 501.09L307.97 501.09L305.24 501.09Q305.22 500.52 304.74 500.18Q304.25 499.84 303.44 499.84L303.44 499.84L302.43 499.84Q301.55 499.84 301.09 500.20Q300.62 500.56 300.62 501.18L300.62 501.18Q300.62 501.73 300.96 501.99Q301.31 502.26 301.97 502.32L301.97 502.32L304.80 502.72Q306.48 502.92 307.32 503.89Q308.17 504.87 308.17 506.52L308.17 506.52Q308.17 508.28 306.97 509.24Q305.77 510.20 303.46 510.20L303.46 510.20ZM314.04 510L311.29 510L311.29 493.94L314.04 493.94L314.04 497.90L313.98 500.14Q314.20 499 315.06 498.34Q315.91 497.68 317.23 497.68L317.23 497.68Q319.02 497.68 320.08 498.87Q321.15 500.06 321.15 502.06L321.15 502.06L321.15 510L318.40 510L318.40 502.39Q318.40 501.27 317.82 500.66Q317.23 500.06 316.24 500.06L316.24 500.06Q315.21 500.06 314.63 500.67Q314.04 501.29 314.04 502.43L314.04 502.43L314.04 510ZM335.08 510L324.47 510L324.47 507.51L328.61 507.51L328.61 500.39L324.91 500.39L324.91 497.90L331.36 497.90L331.36 507.51L335.08 507.51L335.08 510ZM329.80 495.88L329.80 495.88Q328.96 495.88 328.48 495.45Q327.99 495.02 327.99 494.29L327.99 494.29Q327.99 493.57 328.48 493.14Q328.96 492.71 329.80 492.71L329.80 492.71Q330.63 492.71 331.12 493.14Q331.60 493.57 331.60 494.29L331.60 494.29Q331.60 495.02 331.12 495.45Q330.63 495.88 329.80 495.88ZM340.44 513.96L337.69 513.96L337.69 497.90L340.38 497.90L340.38 500.12Q340.71 498.98 341.57 498.33Q342.42 497.68 343.70 497.68L343.70 497.68Q344.87 497.68 345.76 498.25Q346.65 498.82 347.14 499.87Q347.64 500.91 347.64 502.30L347.64 502.30L347.64 505.58Q347.64 507.67 346.56 508.94Q345.48 510.22 343.70 510.22L343.70 510.22Q342.42 510.22 341.55 509.56Q340.69 508.90 340.36 507.71L340.36 507.71L340.44 510.57L340.44 513.96ZM342.67 507.84L342.67 507.84Q343.72 507.84 344.30 507.27Q344.89 506.70 344.89 505.51L344.89 505.51L344.89 502.39Q344.89 501.20 344.30 500.63Q343.72 500.06 342.67 500.06L342.67 500.06Q341.61 500.06 341.03 500.69Q340.44 501.33 340.44 502.50L340.44 502.50L340.44 505.40Q340.44 506.57 341.03 507.21Q341.61 507.84 342.67 507.84ZM353.75 510L351.00 510L351.00 493.94L353.75 493.94L353.75 502.65L355.69 502.65L358.57 497.90L361.63 497.90L358.04 503.75L361.76 510L358.64 510L355.69 504.98L353.75 504.98L353.75 510ZM374.68 510L364.07 510L364.07 507.51L368.21 507.51L368.21 500.39L364.51 500.39L364.51 497.90L370.96 497.90L370.96 507.51L374.68 507.51L374.68 510ZM369.40 495.88L369.40 495.88Q368.56 495.88 368.08 495.45Q367.59 495.02 367.59 494.29L367.59 494.29Q367.59 493.57 368.08 493.14Q368.56 492.71 369.40 492.71L369.40 492.71Q370.23 492.71 370.72 493.14Q371.20 493.57 371.20 494.29L371.20 494.29Q371.20 495.02 370.72 495.45Q370.23 495.88 369.40 495.88ZM387.19 510L383.41 510Q381.72 510 380.71 509.02Q379.71 508.04 379.71 506.37L379.71 506.37L379.71 500.39L376.37 500.39L376.37 497.90L379.71 497.90L379.71 494.49L382.49 494.49L382.49 497.90L387.30 497.90L387.30 500.39L382.49 500.39L382.49 506.30Q382.49 506.83 382.78 507.17Q383.08 507.51 383.61 507.51L383.61 507.51L387.19 507.51L387.19 510ZM395.40 510.22L395.40 510.22Q394.48 510.22 393.91 509.66Q393.35 509.10 393.35 508.20L393.35 508.20Q393.35 507.29 393.91 506.72Q394.48 506.15 395.40 506.15L395.40 506.15Q396.32 506.15 396.88 506.72Q397.45 507.29 397.45 508.20L397.45 508.20Q397.45 509.10 396.88 509.66Q396.32 510.22 395.40 510.22ZM410.36 510L406.86 510L402.79 497.90L405.67 497.90L408.01 505.25Q408.23 505.91 408.39 506.58Q408.56 507.25 408.62 507.73L408.62 507.73Q408.71 507.25 408.85 506.58Q409.00 505.91 409.19 505.27L409.19 505.27L411.50 497.90L414.41 497.90L410.36 510ZM422.26 510.20L421.29 510.20Q419.14 510.20 417.88 509.22Q416.63 508.24 416.63 506.57L416.63 506.57L419.34 506.57Q419.34 507.27 419.85 507.65Q420.37 508.02 421.29 508.02L421.29 508.02L422.26 508.02Q423.25 508.02 423.79 507.65Q424.33 507.27 424.33 506.57L424.33 506.57Q424.33 505.91 423.96 505.59Q423.58 505.27 422.81 505.16L422.81 505.16L419.80 504.76Q418.35 504.57 417.56 503.64Q416.78 502.72 416.78 501.24L416.78 501.24Q416.78 499.53 417.93 498.62Q419.07 497.70 421.23 497.70L421.23 497.70L422.24 497.70Q424.26 497.70 425.50 498.63Q426.73 499.55 426.77 501.09L426.77 501.09L424.04 501.09Q424.02 500.52 423.54 500.18Q423.05 499.84 422.24 499.84L422.24 499.84L421.23 499.84Q420.35 499.84 419.89 500.20Q419.42 500.56 419.42 501.18L419.42 501.18Q419.42 501.73 419.76 501.99Q420.11 502.26 420.77 502.32L420.77 502.32L423.60 502.72Q425.28 502.92 426.12 503.89Q426.97 504.87 426.97 506.52L426.97 506.52Q426.97 508.28 425.77 509.24Q424.57 510.20 422.26 510.20L422.26 510.20ZM435.20 510.22L435.20 510.22Q433.64 510.22 432.48 509.64Q431.33 509.05 430.69 507.99Q430.05 506.92 430.05 505.47L430.05 505.47L430.05 502.43Q430.05 500.98 430.69 499.91Q431.33 498.85 432.48 498.26Q433.64 497.68 435.20 497.68L435.20 497.68Q437.46 497.68 438.84 498.86Q440.21 500.03 440.28 502.06L440.28 502.06L437.57 502.06Q437.51 501.11 436.86 500.60Q436.21 500.08 435.20 500.08L435.20 500.08Q434.08 500.08 433.44 500.68Q432.80 501.29 432.80 502.41L432.80 502.41L432.80 505.47Q432.80 506.59 433.44 507.21Q434.08 507.82 435.20 507.82L435.20 507.82Q436.23 507.82 436.87 507.31Q437.51 506.79 437.57 505.84L437.57 505.84L440.28 505.84Q440.21 507.87 438.84 509.04Q437.46 510.22 435.20 510.22ZM448.20 510.20L448.20 510.20Q445.87 510.20 444.50 508.89Q443.14 507.58 443.14 505.36L443.14 505.36L443.14 502.54Q443.14 500.30 444.50 499Q445.87 497.70 448.20 497.70L448.20 497.70Q450.53 497.70 451.90 499Q453.26 500.30 453.26 502.54L453.26 502.54L453.26 505.36Q453.26 507.58 451.90 508.89Q450.53 510.20 448.20 510.20ZM448.20 507.80L448.20 507.80Q449.30 507.80 449.90 507.19Q450.51 506.59 450.51 505.45L450.51 505.45L450.51 502.45Q450.51 501.31 449.90 500.70Q449.30 500.10 448.20 500.10L448.20 500.10Q447.10 500.10 446.49 500.70Q445.89 501.31 445.89 502.45L445.89 502.45L445.89 505.45Q445.89 506.59 446.49 507.19Q447.10 507.80 448.20 507.80ZM460.30 510.22L460.30 510.22Q458.54 510.22 457.45 508.97Q456.36 507.71 456.36 505.60L456.36 505.60L456.36 502.32Q456.36 500.19 457.44 498.93Q458.52 497.68 460.30 497.68L460.30 497.68Q461.55 497.68 462.42 498.32Q463.29 498.96 463.64 500.10L463.64 500.10L463.56 497.33L463.56 493.94L466.31 493.94L466.31 510L463.62 510L463.62 507.80Q463.29 508.94 462.43 509.58Q461.58 510.22 460.30 510.22ZM461.33 507.84L461.33 507.84Q462.39 507.84 462.97 507.21Q463.56 506.57 463.56 505.40L463.56 505.40L463.56 502.50Q463.56 501.33 462.97 500.69Q462.39 500.06 461.33 500.06L461.33 500.06Q460.28 500.06 459.69 500.63Q459.11 501.20 459.11 502.39L459.11 502.39L459.11 505.51Q459.11 506.70 459.69 507.27Q460.28 507.84 461.33 507.84ZM474.62 510.22L474.62 510.22Q473.08 510.22 471.94 509.63Q470.79 509.03 470.17 507.94Q469.54 506.85 469.54 505.38L469.54 505.38L469.54 502.52Q469.54 501.05 470.17 499.96Q470.79 498.87 471.94 498.27Q473.08 497.68 474.62 497.68L474.62 497.68Q476.14 497.68 477.27 498.27Q478.41 498.87 479.03 499.94Q479.66 501.00 479.66 502.43L479.66 502.43L479.66 504.63L472.18 504.63L472.18 505.47Q472.18 506.70 472.82 507.33Q473.46 507.95 474.62 507.95L474.62 507.95Q475.48 507.95 476.08 507.66Q476.69 507.36 476.80 506.79L476.80 506.79L479.53 506.79Q479.24 508.35 477.90 509.29Q476.56 510.22 474.62 510.22ZM472.18 502.43L472.18 502.43L472.18 502.85L477.02 502.83L477.02 502.41Q477.02 501.16 476.40 500.47Q475.79 499.79 474.62 499.79L474.62 499.79Q473.41 499.79 472.80 500.49Q472.18 501.18 472.18 502.43ZM491.32 504.02L484.28 504.02L484.28 501.46L491.32 501.46L491.32 504.02ZM506.68 510L496.07 510L496.07 507.51L500.21 507.51L500.21 500.39L496.51 500.39L496.51 497.90L502.96 497.90L502.96 507.51L506.68 507.51L506.68 510ZM501.40 495.88L501.40 495.88Q500.56 495.88 500.08 495.45Q499.59 495.02 499.59 494.29L499.59 494.29Q499.59 493.57 500.08 493.14Q500.56 492.71 501.40 492.71L501.40 492.71Q502.23 492.71 502.72 493.14Q503.20 493.57 503.20 494.29L503.20 494.29Q503.20 495.02 502.72 495.45Q502.23 495.88 501.40 495.88ZM514.75 510L512.00 510L512.00 502.04L508.68 502.04L508.68 499.55L512.00 499.55L512.00 497.42Q512.00 495.83 513.06 494.89Q514.11 493.94 515.85 493.94L515.85 493.94L519.39 493.94L519.39 496.36L515.92 496.36Q515.39 496.36 515.07 496.66Q514.75 496.95 514.75 497.46L514.75 497.46L514.75 499.55L519.39 499.55L519.39 502.04L514.75 502.04L514.75 510ZM530.92 504.02L523.88 504.02L523.88 501.46L530.92 501.46L530.92 504.02ZM540.62 510.22L540.62 510.22Q539.08 510.22 537.94 509.63Q536.79 509.03 536.17 507.94Q535.54 506.85 535.54 505.38L535.54 505.38L535.54 502.52Q535.54 501.05 536.17 499.96Q536.79 498.87 537.94 498.27Q539.08 497.68 540.62 497.68L540.62 497.68Q542.14 497.68 543.27 498.27Q544.41 498.87 545.03 499.94Q545.66 501.00 545.66 502.43L545.66 502.43L545.66 504.63L538.18 504.63L538.18 505.47Q538.18 506.70 538.82 507.33Q539.46 507.95 540.62 507.95L540.62 507.95Q541.48 507.95 542.08 507.66Q542.69 507.36 542.80 506.79L542.80 506.79L545.53 506.79Q545.24 508.35 543.90 509.29Q542.56 510.22 540.62 510.22ZM538.18 502.43L538.18 502.43L538.18 502.85L543.02 502.83L543.02 502.41Q543.02 501.16 542.40 500.47Q541.79 499.79 540.62 499.79L540.62 499.79Q539.41 499.79 538.80 500.49Q538.18 501.18 538.18 502.43ZM551.64 510L548.89 510L548.89 497.90L551.58 497.90L551.58 500.17Q551.80 499.02 552.66 498.35Q553.51 497.68 554.83 497.68L554.83 497.68Q556.62 497.68 557.68 498.87Q558.75 500.06 558.75 502.06L558.75 502.06L558.75 510L556.00 510L556.00 502.39Q556.00 501.27 555.42 500.66Q554.83 500.06 553.84 500.06L553.84 500.06Q552.81 500.06 552.23 500.67Q551.64 501.29 551.64 502.43L551.64 502.43L551.64 510ZM565.90 510.22L565.90 510.22Q564.14 510.22 563.05 508.97Q561.96 507.71 561.96 505.60L561.96 505.60L561.96 502.32Q561.96 500.19 563.04 498.93Q564.12 497.68 565.90 497.68L565.90 497.68Q567.15 497.68 568.02 498.32Q568.89 498.96 569.24 500.10L569.24 500.10L569.16 497.33L569.16 493.94L571.91 493.94L571.91 510L569.22 510L569.22 507.80Q568.89 508.94 568.03 509.58Q567.18 510.22 565.90 510.22ZM566.93 507.84L566.93 507.84Q567.99 507.84 568.57 507.21Q569.16 506.57 569.16 505.40L569.16 505.40L569.16 502.50Q569.16 501.33 568.57 500.69Q567.99 500.06 566.93 500.06L566.93 500.06Q565.88 500.06 565.29 500.63Q564.71 501.20 564.71 502.39L564.71 502.39L564.71 505.51Q564.71 506.70 565.29 507.27Q565.88 507.84 566.93 507.84ZM583.72 504.02L576.68 504.02L576.68 501.46L583.72 501.46L583.72 504.02ZM590.25 510L587.83 510L587.83 497.90L590.12 497.90L590.12 499.66L590.19 499.66Q590.25 498.78 590.80 498.23Q591.35 497.68 592.19 497.68L592.19 497.68Q593.00 497.68 593.58 498.20Q594.15 498.71 594.35 499.59L594.35 499.59Q594.43 498.71 595.00 498.20Q595.56 497.68 596.41 497.68L596.41 497.68Q597.51 497.68 598.24 498.55Q598.97 499.42 598.97 500.78L598.97 500.78L598.97 510L596.55 510L596.55 500.98Q596.55 500.39 596.27 500.05Q596.00 499.70 595.49 499.70L595.49 499.70Q594.50 499.70 594.50 500.98L594.50 500.98L594.50 510L592.30 510L592.30 500.98Q592.30 500.39 592.05 500.05Q591.79 499.70 591.31 499.70L591.31 499.70Q590.25 499.70 590.25 500.98L590.25 500.98L590.25 510ZM605.26 510.22L605.26 510.22Q603.41 510.22 602.34 509.18Q601.28 508.13 601.28 506.44L601.28 506.44Q601.28 504.68 602.49 503.63Q603.70 502.59 605.81 502.59L605.81 502.59L608.76 502.59L608.76 501.73Q608.76 499.90 606.62 499.90L606.62 499.90Q605.65 499.90 605.08 500.28Q604.51 500.65 604.44 501.33L604.44 501.33L601.80 501.33Q601.89 499.70 603.18 498.69Q604.47 497.68 606.64 497.68L606.64 497.68Q608.95 497.68 610.23 498.76Q611.51 499.84 611.51 501.79L611.51 501.79L611.51 510L608.82 510L608.82 507.73Q608.67 508.90 607.72 509.56Q606.78 510.22 605.26 510.22ZM606.14 507.98L606.14 507.98Q607.35 507.98 608.05 507.38Q608.76 506.79 608.76 505.80L608.76 505.80L608.76 504.37L605.94 504.37Q605.04 504.37 604.51 504.87Q603.98 505.38 603.98 506.17L603.98 506.17Q603.98 506.99 604.54 507.48Q605.10 507.98 606.14 507.98ZM618.08 510L615.33 510L615.33 497.90L618.02 497.90L618.02 500.25Q618.24 499.07 619.11 498.37Q619.98 497.68 621.36 497.68L621.36 497.68Q623.21 497.68 624.24 498.87Q625.28 500.06 625.28 502.19L625.28 502.19L625.28 503.33L622.53 503.33L622.53 502.32Q622.53 501.22 621.96 500.64Q621.38 500.06 620.33 500.06L620.33 500.06Q619.23 500.06 618.66 500.72Q618.08 501.38 618.08 502.59L618.08 502.59L618.08 510ZM630.95 510L628.20 510L628.20 493.94L630.95 493.94L630.95 502.65L632.89 502.65L635.77 497.90L638.83 497.90L635.24 503.75L638.96 510L635.84 510L632.89 504.98L630.95 504.98L630.95 510ZM646.22 510.22L646.22 510.22Q644.68 510.22 643.54 509.63Q642.39 509.03 641.77 507.94Q641.14 506.85 641.14 505.38L641.14 505.38L641.14 502.52Q641.14 501.05 641.77 499.96Q642.39 498.87 643.54 498.27Q644.68 497.68 646.22 497.68L646.22 497.68Q647.74 497.68 648.87 498.27Q650.01 498.87 650.63 499.94Q651.26 501.00 651.26 502.43L651.26 502.43L651.26 504.63L643.78 504.63L643.78 505.47Q643.78 506.70 644.42 507.33Q645.06 507.95 646.22 507.95L646.22 507.95Q647.08 507.95 647.69 507.66Q648.29 507.36 648.40 506.79L648.40 506.79L651.13 506.79Q650.84 508.35 649.50 509.29Q648.16 510.22 646.22 510.22ZM643.78 502.43L643.78 502.43L643.78 502.85L648.62 502.83L648.62 502.41Q648.62 501.16 648.00 500.47Q647.39 499.79 646.22 499.79L646.22 499.79Q645.01 499.79 644.40 500.49Q643.78 501.18 643.78 502.43ZM657.68 510L654.93 510L654.93 497.90L657.62 497.90L657.62 500.25Q657.84 499.07 658.71 498.37Q659.58 497.68 660.96 497.68L660.96 497.68Q662.81 497.68 663.84 498.87Q664.88 500.06 664.88 502.19L664.88 502.19L664.88 503.33L662.13 503.33L662.13 502.32Q662.13 501.22 661.56 500.64Q660.98 500.06 659.93 500.06L659.93 500.06Q658.83 500.06 658.26 500.72Q657.68 501.38 657.68 502.59L657.68 502.59L657.68 510Z"/>
  </g>

  <path fill="#6b6275" d="M834.66 577.45L838.07 577.45L838.07 592L834.66 592L834.66 577.45ZM843.38 592.20L843.38 592.20Q841.81 592.20 840.80 591.39Q839.79 590.59 839.79 588.97L839.79 588.97Q839.79 587.76 840.35 587.05Q840.90 586.34 841.83 585.99Q842.75 585.65 843.85 585.55L843.85 585.55Q845.24 585.44 845.84 585.27Q846.44 585.10 846.44 584.59L846.44 584.59L846.44 584.55Q846.44 583.98 846.05 583.67Q845.65 583.37 844.96 583.37L844.96 583.37Q844.24 583.37 843.79 583.67Q843.33 583.97 843.19 584.49L843.19 584.49L840.10 584.09Q840.43 582.69 841.68 581.82Q842.94 580.95 844.99 580.95L844.99 580.95Q846.34 580.95 847.44 581.37Q848.54 581.79 849.19 582.60Q849.84 583.42 849.84 584.59L849.84 584.59L849.84 592L846.64 592L846.64 590.47L846.55 590.47Q845.64 592.20 843.38 592.20ZM844.42 589.94L844.42 589.94Q845.28 589.94 845.88 589.43Q846.47 588.92 846.47 588.11L846.47 588.11L846.47 587.07Q846.18 587.22 845.62 587.33Q845.06 587.44 844.59 587.52L844.59 587.52Q843.01 587.75 843.01 588.82L843.01 588.82Q843.01 589.36 843.41 589.65Q843.80 589.94 844.42 589.94ZM857.16 592.21L857.16 592.21Q855.46 592.21 854.22 591.50Q852.99 590.79 852.33 589.52Q851.68 588.26 851.68 586.58L851.68 586.58Q851.68 584.90 852.33 583.63Q852.99 582.36 854.22 581.65Q855.46 580.95 857.16 580.95L857.16 580.95Q859.25 580.95 860.60 581.99Q861.94 583.04 862.19 584.82L862.19 584.82L859.05 585.35Q858.88 584.49 858.42 584.02Q857.96 583.55 857.20 583.55L857.20 583.55Q856.23 583.55 855.69 584.35Q855.15 585.14 855.15 586.56L855.15 586.56Q855.15 587.97 855.69 588.78Q856.23 589.60 857.20 589.60L857.20 589.60Q857.96 589.60 858.43 589.11Q858.90 588.62 859.06 587.74L859.06 587.74L862.20 588.25Q861.95 590.09 860.61 591.15Q859.27 592.21 857.16 592.21ZM863.97 595.83L863.97 595.83L864.73 593.34L865.16 593.46Q866.08 593.70 866.65 593.43Q867.21 593.15 867.17 592.48L867.17 592.48L867.16 592.02L863.09 581.08L866.69 581.08L868.32 586.42Q868.53 587.13 868.68 587.83Q868.82 588.53 868.96 589.27L868.96 589.27Q869.13 588.52 869.31 587.82Q869.50 587.12 869.72 586.42L869.72 586.42L871.47 581.08L875.03 581.08L870.45 593.15Q869.95 594.48 868.96 595.32Q867.97 596.16 866.14 596.16L866.14 596.16Q864.82 596.16 863.97 595.83ZM879.77 592L876.36 592L876.36 581.08L879.50 581.08L879.65 583.25Q880.10 582.02 880.96 581.48Q881.81 580.94 882.80 580.94L882.80 580.94Q883.83 580.94 884.52 581.53Q885.21 582.13 885.61 583.46L885.61 583.46Q886.11 582.12 887.08 581.53Q888.05 580.94 889.16 580.94L889.16 580.94Q890.69 580.94 891.67 581.92Q892.65 582.91 892.65 584.64L892.65 584.64L892.65 592L889.24 592L889.24 585.41Q889.24 584.58 888.81 584.15Q888.38 583.72 887.71 583.72L887.71 583.72Q886.99 583.72 886.57 584.19Q886.15 584.67 886.15 585.45L886.15 585.45L886.15 592L882.88 592L882.88 585.36Q882.88 584.61 882.45 584.16Q882.03 583.72 881.35 583.72L881.35 583.72Q880.66 583.72 880.22 584.19Q879.77 584.66 879.77 585.52L879.77 585.52L879.77 592ZM899.98 592.21L899.98 592.21Q898.27 592.21 897.04 591.50Q895.81 590.79 895.15 589.52Q894.49 588.26 894.49 586.58L894.49 586.58Q894.49 584.90 895.15 583.63Q895.81 582.36 897.04 581.65Q898.27 580.95 899.98 580.95L899.98 580.95Q901.69 580.95 902.91 581.65Q904.14 582.36 904.80 583.63Q905.46 584.90 905.46 586.58L905.46 586.58Q905.46 588.26 904.80 589.52Q904.14 590.79 902.91 591.50Q901.69 592.21 899.98 592.21ZM899.98 589.60L899.98 589.60Q900.95 589.60 901.47 588.76Q901.99 587.93 901.99 586.56L901.99 586.56Q901.99 585.19 901.47 584.37Q900.95 583.55 899.98 583.55L899.98 583.55Q899 583.55 898.48 584.37Q897.96 585.19 897.96 586.56L897.96 586.56Q897.96 587.93 898.48 588.76Q899 589.60 899.98 589.60ZM910.70 592L907.29 592L907.29 581.08L910.60 581.08L910.60 583.07L910.72 583.07Q911.01 582 911.69 581.47Q912.37 580.95 913.27 580.95L913.27 580.95Q913.77 580.95 914.23 581.06L914.23 581.06L914.23 584.03Q913.99 583.94 913.59 583.90Q913.20 583.86 912.89 583.86L912.89 583.86Q911.94 583.86 911.32 584.46Q910.70 585.07 910.70 586.04L910.70 586.04L910.70 592ZM919.10 592L915.69 592L915.69 581.08L919 581.08L919 583.07L919.12 583.07Q919.41 582 920.09 581.47Q920.77 580.95 921.67 580.95L921.67 580.95Q922.16 580.95 922.63 581.06L922.63 581.06L922.63 584.03Q922.39 583.94 921.99 583.90Q921.60 583.86 921.29 583.86L921.29 583.86Q920.34 583.86 919.72 584.46Q919.10 585.07 919.10 586.04L919.10 586.04L919.10 592ZM929.16 592.21L929.16 592.21Q927.45 592.21 926.22 591.50Q924.99 590.79 924.33 589.52Q923.67 588.26 923.67 586.58L923.67 586.58Q923.67 584.90 924.33 583.63Q924.99 582.36 926.22 581.65Q927.45 580.95 929.16 580.95L929.16 580.95Q930.87 580.95 932.09 581.65Q933.32 582.36 933.98 583.63Q934.63 584.90 934.63 586.58L934.63 586.58Q934.63 588.26 933.98 589.52Q933.32 590.79 932.09 591.50Q930.87 592.21 929.16 592.21ZM929.16 589.60L929.16 589.60Q930.13 589.60 930.65 588.76Q931.17 587.93 931.17 586.56L931.17 586.56Q931.17 585.19 930.65 584.37Q930.13 583.55 929.16 583.55L929.16 583.55Q928.18 583.55 927.66 584.37Q927.14 585.19 927.14 586.56L927.14 586.56Q927.14 587.93 927.66 588.76Q928.18 589.60 929.16 589.60ZM942.15 592L938.68 592L935.49 581.08L939.06 581.08L939.86 584.82Q940.04 585.75 940.26 586.79Q940.47 587.82 940.68 589.00L940.68 589.00Q940.89 587.83 941.14 586.79Q941.38 585.75 941.60 584.82L941.60 584.82L942.47 581.08L945.49 581.08L946.33 584.82Q946.54 585.76 946.78 586.79Q947.03 587.83 947.25 589.02L947.25 589.02Q947.44 587.84 947.64 586.80Q947.85 585.76 948.04 584.82L948.04 584.82L948.83 581.08L952.46 581.08L949.24 592L945.77 592L944.63 588.08Q944.47 587.49 944.30 586.67Q944.13 585.86 943.96 585.07L943.96 585.07Q943.79 585.86 943.63 586.67Q943.46 587.49 943.29 588.08L943.29 588.08L942.15 592ZM957.49 576.77L960.40 576.77L955.71 594.19L952.80 594.19L957.49 576.77ZM968.72 592L964.77 592L960.82 581.08L964.41 581.08L966.04 586.42Q966.27 587.16 966.45 587.91Q966.63 588.66 966.80 589.45L966.80 589.45Q966.96 588.66 967.13 587.91Q967.31 587.17 967.54 586.42L967.54 586.42L969.14 581.08L972.69 581.08L968.72 592ZM978.63 592.21L978.63 592.21Q976.53 592.21 975.18 591.32Q973.82 590.44 973.54 588.88L973.54 588.88L976.71 588.38Q976.91 589.09 977.40 589.45Q977.89 589.81 978.76 589.81L978.76 589.81Q979.47 589.81 979.88 589.56Q980.29 589.31 980.29 588.90L980.29 588.90Q980.29 588.19 978.95 587.93L978.95 587.93L977.05 587.56Q973.81 586.94 973.81 584.41L973.81 584.41Q973.81 582.78 975.12 581.86Q976.42 580.95 978.62 580.95L978.62 580.95Q980.67 580.95 981.91 581.76Q983.15 582.57 983.43 583.97L983.43 583.97L980.43 584.45Q980.09 583.29 978.68 583.29L978.68 583.29Q978.06 583.29 977.64 583.54Q977.21 583.79 977.21 584.21L977.21 584.21Q977.21 584.54 977.48 584.79Q977.74 585.04 978.44 585.17L978.44 585.17L980.53 585.56Q983.75 586.17 983.75 588.51L983.75 588.51Q983.75 589.64 983.09 590.47Q982.43 591.30 981.28 591.75Q980.12 592.21 978.63 592.21ZM990.56 592.21L990.56 592.21Q988.85 592.21 987.62 591.50Q986.39 590.79 985.73 589.52Q985.07 588.26 985.07 586.58L985.07 586.58Q985.07 584.90 985.73 583.63Q986.39 582.36 987.62 581.65Q988.85 580.95 990.56 580.95L990.56 580.95Q992.65 580.95 994.00 581.99Q995.34 583.04 995.59 584.82L995.59 584.82L992.45 585.35Q992.28 584.49 991.82 584.02Q991.35 583.55 990.60 583.55L990.60 583.55Q989.63 583.55 989.09 584.35Q988.55 585.14 988.55 586.56L988.55 586.56Q988.55 587.97 989.09 588.78Q989.63 589.60 990.60 589.60L990.60 589.60Q991.35 589.60 991.83 589.11Q992.30 588.62 992.46 587.74L992.46 587.74L995.60 588.25Q995.35 590.09 994.01 591.15Q992.67 592.21 990.56 592.21ZM1002.47 592.21L1002.47 592.21Q1000.76 592.21 999.53 591.50Q998.30 590.79 997.64 589.52Q996.98 588.26 996.98 586.58L996.98 586.58Q996.98 584.90 997.64 583.63Q998.30 582.36 999.53 581.65Q1000.76 580.95 1002.47 580.95L1002.47 580.95Q1004.18 580.95 1005.40 581.65Q1006.63 582.36 1007.29 583.63Q1007.95 584.90 1007.95 586.58L1007.95 586.58Q1007.95 588.26 1007.29 589.52Q1006.63 590.79 1005.40 591.50Q1004.18 592.21 1002.47 592.21ZM1002.47 589.60L1002.47 589.60Q1003.44 589.60 1003.96 588.76Q1004.48 587.93 1004.48 586.56L1004.48 586.56Q1004.48 585.19 1003.96 584.37Q1003.44 583.55 1002.47 583.55L1002.47 583.55Q1001.49 583.55 1000.97 584.37Q1000.46 585.19 1000.46 586.56L1000.46 586.56Q1000.46 587.93 1000.97 588.76Q1001.49 589.60 1002.47 589.60ZM1013.74 592.16L1013.74 592.16Q1012.53 592.16 1011.53 591.53Q1010.53 590.90 1009.95 589.65Q1009.36 588.41 1009.36 586.55L1009.36 586.55Q1009.36 584.64 1009.97 583.40Q1010.58 582.16 1011.57 581.55Q1012.56 580.95 1013.71 580.95L1013.71 580.95Q1014.58 580.95 1015.19 581.24Q1015.81 581.54 1016.20 582.00Q1016.60 582.47 1016.80 582.96L1016.80 582.96L1016.88 582.96L1016.88 577.45L1020.28 577.45L1020.28 592L1016.92 592L1016.92 590.23L1016.80 590.23Q1016.48 590.97 1015.73 591.57Q1014.99 592.16 1013.74 592.16ZM1014.90 589.50L1014.90 589.50Q1015.87 589.50 1016.41 588.69Q1016.96 587.89 1016.96 586.55L1016.96 586.55Q1016.96 585.19 1016.42 584.40Q1015.88 583.61 1014.90 583.61L1014.90 583.61Q1013.91 583.61 1013.39 584.42Q1012.87 585.22 1012.87 586.55L1012.87 586.55Q1012.87 587.88 1013.39 588.69Q1013.91 589.50 1014.90 589.50ZM1027.62 592.21L1027.62 592.21Q1025.05 592.21 1023.58 590.71Q1022.12 589.21 1022.12 586.58L1022.12 586.58Q1022.12 584.90 1022.77 583.63Q1023.43 582.36 1024.64 581.65Q1025.86 580.95 1027.50 580.95L1027.50 580.95Q1029.03 580.95 1030.22 581.58Q1031.40 582.22 1032.08 583.47Q1032.76 584.71 1032.76 586.51L1032.76 586.51L1032.76 587.37L1025.46 587.37Q1025.51 588.55 1026.11 589.14Q1026.71 589.73 1027.68 589.73L1027.68 589.73Q1028.37 589.73 1028.86 589.45Q1029.36 589.16 1029.57 588.61L1029.57 588.61L1032.60 589.11Q1032.19 590.53 1030.90 591.37Q1029.61 592.21 1027.62 592.21ZM1025.48 585.39L1025.48 585.39L1029.53 585.39Q1029.43 584.46 1028.92 583.94Q1028.41 583.42 1027.53 583.42L1027.53 583.42Q1026.63 583.42 1026.10 583.95Q1025.58 584.48 1025.48 585.39ZM1034.78 584.79L1041.49 584.79L1041.49 587.42L1034.78 587.42L1034.78 584.79ZM1047.38 592L1043.97 592L1043.97 581.08L1047.38 581.08L1047.38 592ZM1045.67 579.80L1045.67 579.80Q1044.95 579.80 1044.43 579.32Q1043.91 578.85 1043.91 578.16L1043.91 578.16Q1043.91 577.48 1044.43 577Q1044.95 576.52 1045.67 576.52L1045.67 576.52Q1046.40 576.52 1046.92 577Q1047.44 577.48 1047.44 578.16L1047.44 578.16Q1047.44 578.85 1046.92 579.32Q1046.40 579.80 1045.67 579.80ZM1053.93 581.08L1056.12 581.08L1056.12 583.61L1053.93 583.61L1053.93 592L1050.54 592L1050.54 583.61L1048.71 583.61L1048.71 581.08L1050.54 581.08L1050.54 580.50Q1050.54 578.62 1051.58 577.69Q1052.61 576.77 1054.25 576.77L1054.25 576.77Q1054.98 576.77 1055.61 576.88Q1056.25 576.99 1056.55 577.08L1056.55 577.08L1056.00 579.57Q1055.81 579.52 1055.54 579.48Q1055.28 579.43 1055.02 579.43L1055.02 579.43Q1054.41 579.43 1054.17 579.71Q1053.93 579.99 1053.93 580.47L1053.93 580.47L1053.93 581.08ZM1058.06 584.79L1064.77 584.79L1064.77 587.42L1058.06 587.42L1058.06 584.79ZM1072.34 592.21L1072.34 592.21Q1069.77 592.21 1068.30 590.71Q1066.83 589.21 1066.83 586.58L1066.83 586.58Q1066.83 584.90 1067.49 583.63Q1068.15 582.36 1069.36 581.65Q1070.57 580.95 1072.21 580.95L1072.21 580.95Q1073.75 580.95 1074.93 581.58Q1076.12 582.22 1076.80 583.47Q1077.48 584.71 1077.48 586.51L1077.48 586.51L1077.48 587.37L1070.18 587.37Q1070.23 588.55 1070.83 589.14Q1071.43 589.73 1072.40 589.73L1072.40 589.73Q1073.08 589.73 1073.58 589.45Q1074.08 589.16 1074.28 588.61L1074.28 588.61L1077.32 589.11Q1076.91 590.53 1075.62 591.37Q1074.32 592.21 1072.34 592.21ZM1070.20 585.39L1070.20 585.39L1074.24 585.39Q1074.15 584.46 1073.64 583.94Q1073.13 583.42 1072.24 583.42L1072.24 583.42Q1071.34 583.42 1070.82 583.95Q1070.30 584.48 1070.20 585.39ZM1082.67 585.77L1082.67 585.77L1082.67 592L1079.26 592L1079.26 581.08L1082.47 581.08L1082.53 583.44Q1082.96 582.30 1083.79 581.62Q1084.62 580.95 1085.94 580.95L1085.94 580.95Q1087.65 580.95 1088.69 582.07Q1089.72 583.19 1089.72 585.05L1089.72 585.05L1089.72 592L1086.31 592L1086.31 585.71Q1086.31 584.79 1085.85 584.27Q1085.38 583.75 1084.54 583.75L1084.54 583.75Q1083.71 583.75 1083.19 584.28Q1082.67 584.81 1082.67 585.77ZM1095.92 592.16L1095.92 592.16Q1094.71 592.16 1093.72 591.53Q1092.72 590.90 1092.13 589.65Q1091.55 588.41 1091.55 586.55L1091.55 586.55Q1091.55 584.64 1092.16 583.40Q1092.77 582.16 1093.76 581.55Q1094.75 580.95 1095.89 580.95L1095.89 580.95Q1096.76 580.95 1097.38 581.24Q1097.99 581.54 1098.39 582.00Q1098.79 582.47 1098.99 582.96L1098.99 582.96L1099.07 582.96L1099.07 577.45L1102.47 577.45L1102.47 592L1099.11 592L1099.11 590.23L1098.99 590.23Q1098.67 590.97 1097.92 591.57Q1097.17 592.16 1095.92 592.16ZM1097.09 589.50L1097.09 589.50Q1098.05 589.50 1098.60 588.69Q1099.15 587.89 1099.15 586.55L1099.15 586.55Q1099.15 585.19 1098.60 584.40Q1098.06 583.61 1097.09 583.61L1097.09 583.61Q1096.10 583.61 1095.58 584.42Q1095.05 585.22 1095.05 586.55L1095.05 586.55Q1095.05 587.88 1095.58 588.69Q1096.10 589.50 1097.09 589.50ZM1104.96 584.79L1111.67 584.79L1111.67 587.42L1104.96 587.42L1104.96 584.79ZM1117.55 592L1114.15 592L1114.15 581.08L1117.28 581.08L1117.44 583.25Q1117.89 582.02 1118.74 581.48Q1119.60 580.94 1120.58 580.94L1120.58 580.94Q1121.62 580.94 1122.31 581.53Q1122.99 582.13 1123.39 583.46L1123.39 583.46Q1123.89 582.12 1124.86 581.53Q1125.84 580.94 1126.94 580.94L1126.94 580.94Q1128.47 580.94 1129.45 581.92Q1130.44 582.91 1130.44 584.64L1130.44 584.64L1130.44 592L1127.03 592L1127.03 585.41Q1127.03 584.58 1126.60 584.15Q1126.17 583.72 1125.49 583.72L1125.49 583.72Q1124.77 583.72 1124.35 584.19Q1123.93 584.67 1123.93 585.45L1123.93 585.45L1123.93 592L1120.66 592L1120.66 585.36Q1120.66 584.61 1120.24 584.16Q1119.81 583.72 1119.14 583.72L1119.14 583.72Q1118.44 583.72 1118.00 584.19Q1117.55 584.66 1117.55 585.52L1117.55 585.52L1117.55 592ZM1135.75 592.20L1135.75 592.20Q1134.18 592.20 1133.17 591.39Q1132.15 590.59 1132.15 588.97L1132.15 588.97Q1132.15 587.76 1132.71 587.05Q1133.27 586.34 1134.19 585.99Q1135.11 585.65 1136.22 585.55L1136.22 585.55Q1137.60 585.44 1138.20 585.27Q1138.80 585.10 1138.80 584.59L1138.80 584.59L1138.80 584.55Q1138.80 583.98 1138.41 583.67Q1138.01 583.37 1137.32 583.37L1137.32 583.37Q1136.61 583.37 1136.15 583.67Q1135.69 583.97 1135.55 584.49L1135.55 584.49L1132.47 584.09Q1132.79 582.69 1134.04 581.82Q1135.30 580.95 1137.35 580.95L1137.35 580.95Q1138.71 580.95 1139.81 581.37Q1140.90 581.79 1141.55 582.60Q1142.20 583.42 1142.20 584.59L1142.20 584.59L1142.20 592L1139 592L1139 590.47L1138.91 590.47Q1138.00 592.20 1135.75 592.20ZM1136.78 589.94L1136.78 589.94Q1137.64 589.94 1138.24 589.43Q1138.83 588.92 1138.83 588.11L1138.83 588.11L1138.83 587.07Q1138.54 587.22 1137.98 587.33Q1137.43 587.44 1136.95 587.52L1136.95 587.52Q1135.38 587.75 1135.38 588.82L1135.38 588.82Q1135.38 589.36 1135.77 589.65Q1136.17 589.94 1136.78 589.94ZM1147.87 592L1144.46 592L1144.46 581.08L1147.77 581.08L1147.77 583.07L1147.89 583.07Q1148.18 582 1148.86 581.47Q1149.54 580.95 1150.44 580.95L1150.44 580.95Q1150.93 580.95 1151.40 581.06L1151.40 581.06L1151.40 584.03Q1151.16 583.94 1150.76 583.90Q1150.37 583.86 1150.05 583.86L1150.05 583.86Q1149.11 583.86 1148.49 584.46Q1147.87 585.07 1147.87 586.04L1147.87 586.04L1147.87 592ZM1156.27 592L1152.86 592L1152.86 577.45L1156.27 577.45L1156.27 585.03L1156.42 585.03L1159.55 581.08L1163.42 581.08L1159.53 585.85L1163.58 592L1159.64 592L1156.99 587.83L1156.27 588.69L1156.27 592ZM1169.80 592.21L1169.80 592.21Q1167.23 592.21 1165.76 590.71Q1164.29 589.21 1164.29 586.58L1164.29 586.58Q1164.29 584.90 1164.95 583.63Q1165.61 582.36 1166.82 581.65Q1168.03 580.95 1169.67 580.95L1169.67 580.95Q1171.21 580.95 1172.39 581.58Q1173.58 582.22 1174.26 583.47Q1174.94 584.71 1174.94 586.51L1174.94 586.51L1174.94 587.37L1167.64 587.37Q1167.69 588.55 1168.29 589.14Q1168.89 589.73 1169.86 589.73L1169.86 589.73Q1170.54 589.73 1171.04 589.45Q1171.54 589.16 1171.74 588.61L1171.74 588.61L1174.78 589.11Q1174.37 590.53 1173.08 591.37Q1171.78 592.21 1169.80 592.21ZM1167.66 585.39L1167.66 585.39L1171.71 585.39Q1171.61 584.46 1171.10 583.94Q1170.59 583.42 1169.70 583.42L1169.70 583.42Q1168.80 583.42 1168.28 583.95Q1167.76 584.48 1167.66 585.39ZM1180.13 592L1176.72 592L1176.72 581.08L1180.04 581.08L1180.04 583.07L1180.15 583.07Q1180.45 582 1181.12 581.47Q1181.80 580.95 1182.70 580.95L1182.70 580.95Q1183.20 580.95 1183.67 581.06L1183.67 581.06L1183.67 584.03Q1183.42 583.94 1183.03 583.90Q1182.63 583.86 1182.32 583.86L1182.32 583.86Q1181.37 583.86 1180.75 584.46Q1180.13 585.07 1180.13 586.04L1180.13 586.04L1180.13 592Z"/>
</svg>
